<svg aria-hidden="true" style="width:0;height:0;position:absolute;overflow:hidden" xmlns="http://www.w3.org/2000/svg"><defs><symbol id="Frame-17" viewBox="0 0 32 32"><path fill="#fff" style="fill:var(--color1,#fff)" d="m30.62 16.817-1.412-4.344c-.712-2.189-1.985-4.169-3.682-5.724s-3.78-2.652-6.023-3.17l-3.101-.717L7.798.99a.47.47 0 0 0-.2.918l8.592 1.869.018.004a4.61 4.61 0 0 1 3.609 4.048c.243 2.434.771 5.14 1.568 8.044 1.06 3.863 1.008 7.092.778 9.121-.181 1.595-.497 2.718-.659 3.221h-6.27a.47.47 0 0 0 0 .94h6.337l.994 1.666c.041.069.019.13.002.16s-.058.081-.138.081H2.471c-.081 0-.121-.05-.138-.081s-.04-.091.002-.16l.994-1.667h10.028a.47.47 0 0 0 0-.94H3.41c-.757-2.505-1.046-4.735-.905-6.989.131-2.098.618-3.957 1.132-5.925.641-2.451 1.304-4.986 1.37-8.26.037-1.812-1.067-4.173-1.999-5.835-.063-.158.021-.27.191-.256l2.566.558a.47.47 0 0 0 .2-.918L3.399.03C2.496-.202 1.704.867 2.19 1.663 2.907 2.94 4.104 5.335 4.07 7.02c-.064 3.163-.713 5.643-1.34 8.041-1.027 3.927-1.998 7.639-.177 13.56L1.53 30.337c-.205.344-.209.757-.012 1.105s.555.556.955.556h19.958c.4 0 .757-.208.955-.556s.193-.761-.012-1.105l-1.017-1.705c.163-.476.529-1.693.737-3.494.244-2.119.304-5.49-.801-9.516-.707-2.578-1.197-4.992-1.461-7.191a7.178 7.178 0 0 1 4.365 4.276c.208.576 1.1.238.88-.328a8.118 8.118 0 0 0-5.366-4.971 5.536 5.536 0 0 0-1.43-2.92l.013.003a12.443 12.443 0 0 1 9.022 8.27l1.412 4.344c.089.273.043.562-.126.795s-.43.365-.717.365a.89.89 0 0 1-.83-.577l-1.399-3.756a.47.47 0 1 0-.88.328l1.399 3.755a1.833 1.833 0 0 0 1.71 1.188c.591 0 1.129-.274 1.477-.752s.442-1.075.259-1.637z"/><path fill="#fff" style="fill:var(--color1,#fff)" d="M14.867 23.265a2.062 2.062 0 0 0 2.059-2.059V10.728c0-1.135-.924-2.059-2.059-2.059s-2.059.924-2.059 2.059v10.478c0 1.135.924 2.059 2.059 2.059zm0-13.658c.618 0 1.121.503 1.121 1.121v10.478c0 .618-.503 1.121-1.121 1.121s-1.121-.503-1.121-1.121v-.496h.772a.469.469 0 0 0 0-.938h-.772v-1.705h.772a.469.469 0 0 0 0-.938h-.772v-1.705h.772a.469.469 0 0 0 0-.938h-.772v-1.705h.772a.469.469 0 0 0 0-.938h-.772v-1.116c0-.618.503-1.121 1.121-1.121z"/></symbol><symbol id="fridge" viewBox="0 0 32 32"><path fill="#fff" style="fill:var(--color1,#fff)" d="M25.066 10.721V1.687a1.687 1.687 0 0 0-1.688-1.688H8.545a1.692 1.692 0 0 0-1.688 1.688v9.034a1.678 1.678 0 0 0 .558 1.25 1.685 1.685 0 0 0-.558 1.25v15.283a1.692 1.692 0 0 0 1.688 1.688h.229v1.343a.437.437 0 0 0 .437.437h3.125a.437.437 0 0 0 .437-.437v-1.343h6.375v1.343a.437.437 0 0 0 .437.437h3.125a.437.437 0 0 0 .437-.437v-1.343h.229a1.692 1.692 0 0 0 1.688-1.688V13.221a1.678 1.678 0 0 0-.558-1.25 1.685 1.685 0 0 0 .558-1.25zM11.899 31.096h-2.25v-.905h2.25v.905zm10.375 0h-2.25v-.905h2.25v.905zm1.917-17.875v15.283a.813.813 0 0 1-.812.812H8.546a.813.813 0 0 1-.812-.812V13.221a.813.813 0 0 1 .812-.812h14.833a.813.813 0 0 1 .812.812zM8.545 11.534a.813.813 0 0 1-.812-.812V1.688a.813.813 0 0 1 .812-.812h14.833a.813.813 0 0 1 .812.812v9.034a.813.813 0 0 1-.812.812H8.545z"/><path fill="#fff" style="fill:var(--color1,#fff)" d="M22.165 3.171H20.54a.437.437 0 0 0-.437.437v5.25a.437.437 0 0 0 .437.437h1.625a.437.437 0 0 0 .437-.437v-5.25a.437.437 0 0 0-.437-.437zm-.438 5.249h-.75V4.045h.75V8.42zM20.54 20.19h1.625a.437.437 0 0 0 .437-.437v-5.25a.437.437 0 0 0-.437-.437H20.54a.437.437 0 0 0-.437.437v5.25a.437.437 0 0 0 .437.437zm.437-5.25h.75v4.375h-.75V14.94z"/></symbol><symbol id="kettl" viewBox="0 0 30 32"><path fill="#fff" style="fill:var(--color1,#fff)" d="m29.249 16.817-1.412-4.344c-.712-2.189-1.985-4.169-3.682-5.724s-3.78-2.652-6.023-3.17l-3.101-.717L6.427.99a.47.47 0 0 0-.2.918l8.592 1.869.018.004a4.61 4.61 0 0 1 3.609 4.048c.243 2.434.771 5.14 1.568 8.044 1.06 3.863 1.008 7.092.778 9.121-.181 1.595-.497 2.718-.659 3.221h-6.27a.47.47 0 0 0 0 .94H20.2l.994 1.666c.041.069.019.13.002.16s-.058.081-.138.081H1.1c-.081 0-.121-.05-.138-.081s-.04-.091.002-.16l.994-1.667h10.028a.47.47 0 0 0 0-.94H2.039c-.757-2.505-1.046-4.735-.905-6.989.131-2.098.618-3.957 1.132-5.925.641-2.451 1.304-4.986 1.37-8.26.037-1.812-1.067-4.173-1.999-5.835-.063-.158.021-.27.191-.256l2.566.558a.47.47 0 0 0 .2-.918L2.028.03C1.125-.202.333.867.819 1.663c.717 1.277 1.914 3.672 1.88 5.357-.064 3.163-.713 5.643-1.34 8.041-1.027 3.927-1.998 7.639-.177 13.56L.159 30.337c-.205.344-.209.757-.012 1.105s.555.556.955.556H21.06c.4 0 .757-.208.955-.556s.193-.761-.012-1.105l-1.017-1.705c.163-.476.529-1.693.737-3.494.244-2.119.304-5.49-.801-9.516-.707-2.578-1.197-4.992-1.461-7.191a7.178 7.178 0 0 1 4.365 4.276c.208.576 1.1.238.88-.328a8.118 8.118 0 0 0-5.366-4.971 5.536 5.536 0 0 0-1.43-2.92l.013.003a12.443 12.443 0 0 1 9.022 8.27l1.412 4.344c.089.273.043.562-.126.795s-.43.365-.717.365a.89.89 0 0 1-.83-.577l-1.399-3.755a.47.47 0 1 0-.88.328l1.399 3.755a1.833 1.833 0 0 0 1.71 1.188c.591 0 1.129-.274 1.477-.752s.442-1.075.259-1.637z"/></symbol><symbol id="logo" viewBox="0 0 34 32"><path d="M2.05 29.018v-.398H0v.398h.804v2.522h.443v-2.522h.804zM4.787 31.539V28.62h-.443v1.246H3.159V28.62h-.443v2.919h.443v-1.275h1.185v1.275h.443zM7.581 31.539v-.398H6.158v-.877h1.214v-.394H6.158v-.853h1.423v-.398H5.715v2.919h1.866zM11.508 30.407v-.447h-1.066v.377h.623v.164c0 .096-.011.18-.033.254s-.06.142-.115.205c-.057.066-.127.116-.209.152s-.171.053-.267.053a.64.64 0 0 1-.242-.045.597.597 0 0 1-.279-.254.739.739 0 0 1-.053-.168c-.011-.068-.019-.152-.025-.25s-.008-.221-.008-.369.003-.269.008-.365c.005-.098.014-.18.025-.246a.694.694 0 0 1 .053-.168.581.581 0 0 1 .521-.307c.164 0 .298.045.402.135a.67.67 0 0 1 .213.373h.447c-.022-.126-.06-.243-.115-.353a.972.972 0 0 0-.533-.48c-.12-.049-.258-.074-.414-.074s-.298.027-.426.082a1.024 1.024 0 0 0-.34.23c-.071.071-.126.146-.164.226s-.067.165-.086.258a2.182 2.182 0 0 0-.029.312 14.377 14.377 0 0 0 0 .758c.003.112.012.215.029.308.019.093.048.179.086.258s.093.154.164.226c.101.101.216.179.344.234.129.052.269.078.422.078.156 0 .301-.026.435-.078s.257-.137.369-.254a.873.873 0 0 0 .201-.349c.041-.128.061-.287.061-.476zM14.175 31.539v-.398h-1.406v-2.522h-.443v2.919h1.849zM16.992 31.539l-1.07-2.919h-.357l-1.07 2.919h.471l.201-.586h1.152l.201.586h.471zm-.795-.963h-.898l.455-1.296.443 1.296zM19.395 30.707a.896.896 0 0 0-.061-.34.65.65 0 0 0-.393-.389 1.383 1.383 0 0 0-.328-.086l-.332-.049a.631.631 0 0 1-.328-.135.361.361 0 0 1-.086-.119.461.461 0 0 1-.025-.152c0-.131.045-.239.135-.324.093-.087.226-.131.398-.131.123 0 .236.016.34.049.107.03.205.089.295.176l.283-.279c-.126-.118-.26-.202-.402-.254s-.31-.078-.504-.078c-.153 0-.29.02-.41.061s-.223.1-.308.176a.818.818 0 0 0-.259.619c0 .238.071.424.213.558.131.123.316.201.553.234l.344.049c.087.014.153.029.197.045s.085.042.123.078c.076.068.115.169.115.303a.389.389 0 0 1-.16.332c-.104.076-.252.115-.443.115-.15 0-.286-.019-.406-.057a.892.892 0 0 1-.34-.221l-.295.291c.139.142.291.242.455.299s.357.086.578.086c.153 0 .294-.019.422-.057s.239-.094.332-.168a.773.773 0 0 0 .295-.632zM21.937 30.707a.896.896 0 0 0-.061-.34.65.65 0 0 0-.393-.389 1.383 1.383 0 0 0-.328-.086l-.332-.049a.627.627 0 0 1-.328-.135.361.361 0 0 1-.086-.119.461.461 0 0 1-.025-.152c0-.131.045-.239.135-.324.093-.087.226-.131.398-.131.123 0 .236.016.34.049.107.03.205.089.295.176l.283-.279c-.126-.118-.26-.202-.402-.254s-.31-.078-.504-.078c-.153 0-.29.02-.41.061s-.223.1-.308.176a.818.818 0 0 0-.259.619c0 .238.071.424.213.558.131.123.316.201.553.234l.344.049c.087.014.153.029.197.045s.085.042.123.078c.077.068.115.169.115.303a.389.389 0 0 1-.16.332c-.104.076-.252.115-.443.115-.15 0-.286-.019-.406-.057a.892.892 0 0 1-.34-.221l-.295.291c.139.142.291.242.455.299s.357.086.578.086c.153 0 .294-.019.422-.057s.239-.094.332-.168a.773.773 0 0 0 .295-.632zM25.915 31.539V28.62h-.443v1.246h-1.185V28.62h-.443v2.919h.443v-1.275h1.185v1.275h.443zM28.893 30.555V28.62h-.443v1.915c0 .197-.056.351-.168.463-.109.112-.256.168-.439.168s-.329-.056-.439-.168c-.109-.112-.164-.267-.164-.463V28.62h-.443v1.935c0 .15.026.288.078.414.055.123.128.228.221.316s.204.156.332.205c.128.049.267.074.414.074s.286-.025.414-.074a1.01 1.01 0 0 0 .332-.205.885.885 0 0 0 .221-.316c.055-.126.082-.264.082-.414zM31.566 29.018v-.398h-2.05v.398h.804v2.522h.443v-2.522h.804zM34.057 30.707a.877.877 0 0 0-.062-.34.65.65 0 0 0-.393-.389 1.383 1.383 0 0 0-.328-.086l-.332-.049a.631.631 0 0 1-.328-.135.361.361 0 0 1-.086-.119.461.461 0 0 1-.025-.152c0-.131.045-.239.135-.324.093-.087.225-.131.398-.131.123 0 .236.016.34.049.107.03.205.089.295.176l.283-.279c-.126-.118-.26-.202-.402-.254s-.31-.078-.504-.078c-.153 0-.29.02-.41.061s-.223.1-.308.176a.818.818 0 0 0-.259.619c0 .238.071.424.213.558.131.123.316.201.553.234l.344.049c.087.014.153.029.197.045s.085.042.123.078c.077.068.115.169.115.303a.389.389 0 0 1-.16.332c-.104.076-.251.115-.443.115-.15 0-.286-.019-.406-.057a.892.892 0 0 1-.34-.221l-.295.291c.139.142.291.242.455.299s.357.086.578.086c.153 0 .294-.019.422-.057s.239-.094.332-.168a.773.773 0 0 0 .295-.632zM18.292 21.888l15.395 2.336V10.389L17.963 2.435 8.192.408.382 6.737v17.08l17.911-1.928zM.003 24.237V6.555L8.092 0l9.996 2.074 15.977 8.082v14.508L18.284 22.27.003 24.238z"/><path d="m32.335 11.738-3.154 3.28-.273-.262 3.154-3.28.273.262zM23.609 15.872l2.775 2.145-.231.299-2.775-2.145.231-.3z"/><path d="M28.794 23.844V3.974h.378v19.87h-.378zM26.043 13.004V.505h.378v12.499h-.378z"/><path d="M26.043 26.619v-14.95h.378v14.95h-.378zM32.703 13.562h-2.145v-.378h2.145v.378zM7.951 23.15V.253h.378V23.15h-.378zM17.917 22.14V2.27h.378v19.87h-.378z"/></symbol><symbol id="park" viewBox="0 0 32 32"><path fill="#fff" style="fill:var(--color1,#fff)" d="M16 0C9.236 0 3.733 5.79 3.733 12.907c0 6.974 11.404 18.452 11.89 18.938a.537.537 0 0 0 .754 0c.485-.485 11.89-11.963 11.89-18.937C28.267 5.791 22.764.001 16 .001zm0 30.703C14.006 28.635 4.8 18.765 4.8 12.907c0-6.529 5.025-11.84 11.2-11.84s11.2 5.311 11.2 11.84c0 5.856-9.206 15.727-11.2 17.796z"/><path fill="#fff" style="fill:var(--color1,#fff)" d="M16 2.667c-5.293 0-9.6 4.307-9.6 9.6s4.307 9.6 9.6 9.6c5.293 0 9.6-4.307 9.6-9.6s-4.307-9.6-9.6-9.6zM16 20.8c-4.706 0-8.533-3.828-8.533-8.533S11.295 3.734 16 3.734c4.706 0 8.533 3.828 8.533 8.533S20.705 20.8 16 20.8zM16 26.133a.533.533 0 0 0-.533.533v4.8a.533.533 0 0 0 1.066 0v-4.8a.533.533 0 0 0-.533-.533z"/><path fill="#fff" style="fill:var(--color1,#fff)" d="M17.067 8.533h-2.133a.533.533 0 0 0-.533.533v2.133c0 .294.239.533.533.533h2.133c.882 0 1.6-.718 1.6-1.6s-.718-1.6-1.6-1.6zm0 2.134h-1.6V9.6h1.6a.533.533 0 0 1 0 1.066z"/><path fill="#fff" style="fill:var(--color1,#fff)" d="M17.067 6.4H12.8a.533.533 0 0 0-.533.533V17.6c0 .294.239.533.533.533h2.133a.533.533 0 0 0 .533-.533v-3.733h1.6c2.059 0 3.733-1.675 3.733-3.733s-1.675-3.733-3.733-3.733zm0 6.4h-2.133a.533.533 0 0 0-.533.533v3.733h-1.067v-9.6h3.733c1.47 0 2.667 1.196 2.667 2.667S18.538 12.8 17.067 12.8zM31.467 30.933h-2.133a.533.533 0 0 0 0 1.066h2.133a.533.533 0 0 0 0-1.066zM12.8 30.933H.533a.533.533 0 0 0 0 1.066H12.8a.533.533 0 0 0 0-1.066zM25.6 30.933h-6.4a.533.533 0 0 0 0 1.066h6.4a.533.533 0 0 0 0-1.066z"/></symbol><symbol id="plug" viewBox="0 0 32 32"><path fill="#fff" style="fill:var(--color1,#fff)" d="M26.347 23.994a1.6 1.6 0 0 0-.058-2.191l-1.581-1.581a6.94 6.94 0 0 0-.59-9.123l-6.83-6.831.138-.138A2.418 2.418 0 1 0 14.005.709l-2.804 2.804L8.176.488a1.665 1.665 0 0 0-2.354 2.354l3.025 3.025-2.979 2.979-3.025-3.025A1.665 1.665 0 0 0 .489 8.175L3.514 11.2.71 14.004a2.418 2.418 0 1 0 3.421 3.421l.138-.138 6.831 6.831a6.928 6.928 0 0 0 9.123.59l1.581 1.581a1.59 1.59 0 0 0 2.191.058l5.652 5.652h2.354v-2.354l-5.653-5.652zM6.575 2.088a.598.598 0 1 1 .846-.846l3.025 3.025-.846.846-3.025-3.025zM1.242 7.421a.598.598 0 1 1 .846-.846L5.113 9.6l-.846.846-3.025-3.025zm2.271 9.113-.138.138a1.353 1.353 0 0 1-1.913-1.912L14.758 1.464a1.353 1.353 0 0 1 1.913 1.912L3.513 16.534zm16.636 6.83a5.874 5.874 0 0 1-8.297 0l-6.831-6.831L16.533 5.021l6.831 6.831a5.874 5.874 0 0 1 0 8.297l-3.215 3.215zm3.162 2.172a.534.534 0 0 1-.754 0l-1.535-1.535 2.979-2.979 1.535 1.535a.534.534 0 0 1 0 .754l-2.225 2.225zm7.623 5.397h-.846L24.755 25.6l.846-.846 5.333 5.333v.846z"/><path fill="#fff" style="fill:var(--color1,#fff)" d="m19.724 19.635-1.6-8.533a.534.534 0 0 0-.901-.279l-1.562 1.562-.766-1.916a.536.536 0 0 0-.872-.179l-2.667 2.667a.533.533 0 0 0-.118.575l2.133 5.333a.532.532 0 0 0 .872.179L16 17.288l2.823 2.823a.534.534 0 0 0 .901-.476zm-3.347-3.479a.534.534 0 0 0-.754 0l-1.562 1.562-1.702-4.255 1.846-1.846.766 1.916a.532.532 0 0 0 .872.179l1.418-1.418 1.096 5.845-1.982-1.981z"/></symbol><symbol id="shower" viewBox="0 0 32 32"><path fill="#fff" style="fill:var(--color1,#fff)" d="M26.933 0a1.6 1.6 0 0 0-1.6 1.6v.533H13.6A2.67 2.67 0 0 0 10.933 4.8v2.667H9.866a1.6 1.6 0 0 0-1.6 1.6v1.837A7.853 7.853 0 0 0 4.533 17.6v.631a1.6 1.6 0 0 0-1.067 1.502V20.8c0 .295.239.533.533.533h17.067a.533.533 0 0 0 .533-.533v-1.067a1.6 1.6 0 0 0-1.067-1.502V17.6a7.964 7.964 0 0 0-2.347-5.659 7.181 7.181 0 0 0-1.387-1.046V9.067a1.6 1.6 0 0 0-1.6-1.6h-1.067v-1.6c0-.295.239-.533.533-.533h10.667v1.067a1.6 1.6 0 0 0 1.6 1.6h1.6v-8h-1.6zm-6.4 19.733v.533h-16v-.533c0-.295.239-.533.533-.533h14.933c.295 0 .533.239.533.533zm-3.098-7.036a6.904 6.904 0 0 1 2.031 4.903v.533H5.599V17.6a6.808 6.808 0 0 1 3.346-5.867h7.179c.477.262.918.586 1.31.963zM15.2 8.533c.295 0 .533.239.533.533v1.6h-6.4v-1.6c0-.295.239-.533.533-.533h5.333zm10.133-4.266H14.666a1.6 1.6 0 0 0-1.6 1.6v1.6h-1.067V4.8a1.6 1.6 0 0 1 1.6-1.6h11.733v1.067zm2.134 2.666h-.533a.533.533 0 0 1-.533-.533V1.6c0-.295.239-.533.533-.533h.533v5.867zM12.533 22.4a.533.533 0 0 0-.533.533v2.133a.533.533 0 1 0 1.066 0v-2.133a.533.533 0 0 0-.533-.533zM12.533 26.667A.533.533 0 0 0 12 27.2v2.133a.533.533 0 1 0 1.066 0V27.2a.533.533 0 0 0-.533-.533zM18.933 24.533a.533.533 0 0 0-.533.533v2.133a.533.533 0 1 0 1.066 0v-2.133a.533.533 0 0 0-.533-.533zM14.667 24.533a.533.533 0 0 0-.533.533v2.133a.533.533 0 1 0 1.066 0v-2.133a.533.533 0 0 0-.533-.533zM10.4 24.533a.533.533 0 0 0-.533.533v2.133a.533.533 0 1 0 1.066 0v-2.133a.533.533 0 0 0-.533-.533zM6.133 24.533a.533.533 0 0 0-.533.533v2.133a.533.533 0 1 0 1.066 0v-2.133a.533.533 0 0 0-.533-.533zM8.267 22.4a.533.533 0 0 0-.533.533v2.133a.533.533 0 1 0 1.066 0v-2.133a.533.533 0 0 0-.533-.533zM16.8 22.4a.533.533 0 0 0-.533.533v2.133a.533.533 0 1 0 1.066 0v-2.133a.533.533 0 0 0-.533-.533zM16.8 26.667a.533.533 0 0 0-.533.533v2.133a.533.533 0 1 0 1.066 0V27.2a.533.533 0 0 0-.533-.533zM8.267 26.667a.533.533 0 0 0-.533.533v2.133a.533.533 0 1 0 1.066 0V27.2a.533.533 0 0 0-.533-.533zM10.4 28.8a.533.533 0 0 0-.533.533v2.133a.533.533 0 1 0 1.066 0v-2.133a.533.533 0 0 0-.533-.533zM14.667 28.8a.533.533 0 0 0-.533.533v2.133a.533.533 0 1 0 1.066 0v-2.133a.533.533 0 0 0-.533-.533z"/></symbol><symbol id="temperature" viewBox="0 0 32 32"><path fill="#fff" style="fill:var(--color1,#fff)" d="M14 32c-4.044 0-7.333-3.291-7.333-7.333a7.38 7.38 0 0 1 2.667-5.656V4.667C9.334 2.094 11.427 0 14.001 0s4.667 2.093 4.667 4.667v14.344a7.38 7.38 0 0 1 2.667 5.656c0 4.043-3.289 7.333-7.333 7.333zm0-30.667a3.338 3.338 0 0 0-3.333 3.333v14.667a.668.668 0 0 1-.265.532 6.042 6.042 0 0 0-2.401 4.801c0 3.308 2.692 6 6 6s6-2.692 6-6a6.04 6.04 0 0 0-2.401-4.801.665.665 0 0 1-.265-.532V4.666a3.338 3.338 0 0 0-3.333-3.333z"/><path fill="#fff" style="fill:var(--color1,#fff)" d="M14 28c-1.837 0-3.333-1.495-3.333-3.333s1.496-3.333 3.333-3.333c1.837 0 3.333 1.495 3.333 3.333S15.837 28 14 28zm0-5.333c-1.103 0-2 .897-2 2s.897 2 2 2 2-.897 2-2-.897-2-2-2z"/><path fill="#fff" style="fill:var(--color1,#fff)" d="M14 22.667a.667.667 0 0 1-.667-.667V7.333a.667.667 0 0 1 1.334 0V22a.667.667 0 0 1-.667.667zM24.667 5.333H22a.667.667 0 0 1 0-1.334h2.667a.667.667 0 0 1 0 1.334zM24.667 10.667H22a.667.667 0 0 1 0-1.334h2.667a.667.667 0 0 1 0 1.334zM24.667 16H22a.667.667 0 0 1 0-1.334h2.667a.667.667 0 0 1 0 1.334z"/></symbol><symbol id="toilet" viewBox="0 0 32 32"><path fill="#fff" style="fill:var(--color1,#fff)" d="M22.933 14.933H22.4v-1.067h.533a1.6 1.6 0 0 0 1.6-1.6V3.101a1.596 1.596 0 0 0-.534-3.102h-16a1.595 1.595 0 0 0-.533 3.102v9.165a1.6 1.6 0 0 0 1.6 1.6h.533v1.067h-.533A2.67 2.67 0 0 0 6.399 17.6c0 .295.239.533.533.533a9.014 9.014 0 0 0 5.333 8.254v5.079c0 .294.239.533.533.533h6.4a.533.533 0 0 0 .533-.533v-5.079a9.016 9.016 0 0 0 5.333-8.254.533.533 0 0 0 .533-.533 2.67 2.67 0 0 0-2.667-2.667zM7.467 1.6c0-.295.239-.533.533-.533h16a.533.533 0 1 1 0 1.066H8a.533.533 0 0 1-.533-.533zm1.6 11.2a.533.533 0 0 1-.533-.533V3.2h14.933v9.067a.533.533 0 0 1-.533.533H9.067zm12.266 1.067v1.067H10.666v-1.067h10.667zm-8 17.066v-4.132l.05.013c.053.016.107.028.16.043a9.1 9.1 0 0 0 .591.146 6.9 6.9 0 0 0 .287.053c.165.029.331.053.498.072.101.012.202.025.304.034.217.018.435.028.653.031.041 0 .08.006.121.006s.081-.005.121-.006a8.89 8.89 0 0 0 .653-.031c.102-.009.204-.022.306-.034.165-.02.33-.043.493-.072l.292-.053c.194-.04.386-.089.576-.142.059-.017.119-.03.179-.047l.047-.013.003 4.131h-5.333zm5.664-5.384a8.027 8.027 0 0 1-4.527.436 7.744 7.744 0 0 1-1.47-.438 7.959 7.959 0 0 1-4.999-7.414h16a7.962 7.962 0 0 1-5.003 7.416zM7.558 17.067A1.604 1.604 0 0 1 9.067 16h13.867a1.604 1.604 0 0 1 1.509 1.067H7.559z"/><path fill="#fff" style="fill:var(--color1,#fff)" d="M13.867 4.8h-1.698a1.6 1.6 0 1 0 0 1.067h1.698a.533.533 0 1 0 0-1.066zm-3.2 1.067a.533.533 0 1 1 0-1.066.533.533 0 0 1 0 1.066z"/></symbol><symbol id="towels" viewBox="0 0 32 32"><path fill="#fff" style="fill:var(--color1,#fff)" d="M32 9.066a3.736 3.736 0 0 0-3.733-3.733h-16a3.534 3.534 0 0 0-.969.133c-.199.048-5.468 2.034-8.59 3.213h-.004a3.631 3.631 0 0 0-1.607.945 3.73 3.73 0 0 0 .721 5.843A3.734 3.734 0 0 0 0 18.667a3.733 3.733 0 0 0 1.82 3.2 3.731 3.731 0 0 0 1.913 6.934h16c.552 0 1.096-.124 1.594-.363h.012l8.581-3.223a3.727 3.727 0 0 0 .258-6.543c.266-.154.51-.344.725-.564a3.69 3.69 0 0 0 1.098-2.641 3.744 3.744 0 0 0-1.819-3.197c.265-.154.508-.343.722-.563a3.69 3.69 0 0 0 1.097-2.641zM11.592 6.491c.22-.061.447-.092.675-.091h16a2.67 2.67 0 0 1 2.667 2.667 2.633 2.633 0 0 1-.782 1.884 2.278 2.278 0 0 1-.627.462c-.029.015-.053.03-.081.044-.719.267-1.986.742-3.949 1.479l-2.37.89a3.73 3.73 0 0 0-3.39-5.292H6.12c2.655-1 5.257-1.973 5.474-2.042zM1.067 12.267a2.634 2.634 0 0 1 .785-1.887 2.571 2.571 0 0 1 1.171-.68.577.577 0 0 0 .044-.015 2.59 2.59 0 0 1 .667-.085h16a2.67 2.67 0 0 1 2.667 2.667 2.687 2.687 0 0 1-1.446 2.372l-.046.02a2.604 2.604 0 0 1-1.175.275h-16a2.67 2.67 0 0 1-2.667-2.667zm0 6.399a2.672 2.672 0 0 1 2.667-2.667h16a2.67 2.67 0 0 1 2.667 2.667 2.687 2.687 0 0 1-1.446 2.372l-.046.02a2.604 2.604 0 0 1-1.175.275h-16a2.67 2.67 0 0 1-2.667-2.667zm2.666 9.067a2.667 2.667 0 1 1 0-5.334h16a2.667 2.667 0 1 1 0 5.334h-16zm27.2-5.867a2.633 2.633 0 0 1-.782 1.884 2.673 2.673 0 0 1-.653.485l-6.378 2.392a3.714 3.714 0 0 0-1.419-4.729l7.04-2.641a2.66 2.66 0 0 1 2.193 2.608zm0-6.4a2.633 2.633 0 0 1-.782 1.884 2.278 2.278 0 0 1-.627.462l-.082.044-6.319 2.37a3.72 3.72 0 0 0-1.422-4.727l4.166-1.565 2.88-1.081a2.667 2.667 0 0 1 2.187 2.612z"/><path fill="#fff" style="fill:var(--color1,#fff)" d="M20.8 12.267a.533.533 0 0 0-.533-.533H3.2a.533.533 0 1 0 0 1.066h17.067a.533.533 0 0 0 .533-.533zM20.8 18.667a.533.533 0 0 0-.533-.533H3.2a.533.533 0 1 0 0 1.066h17.067a.533.533 0 0 0 .533-.533zM20.267 24.533H3.2a.533.533 0 1 0 0 1.066h17.067a.533.533 0 1 0 0-1.066zM5.333 1.067A.533.533 0 0 0 4.8 1.6v1.067a.533.533 0 1 0 1.066 0V1.6a.533.533 0 0 0-.533-.533zM4.8 5.867a.533.533 0 1 0 1.066 0V4.8a.533.533 0 1 0-1.066 0v1.067zM4.267 3.2H3.2a.533.533 0 1 0 0 1.066h1.067a.533.533 0 1 0 0-1.066zM6.4 4.267h1.067a.533.533 0 1 0 0-1.066H6.4a.533.533 0 1 0 0 1.066zM31.044 29.223a.533.533 0 0 0-.754.754l.8.8a.534.534 0 0 0 .754-.755l-.8-.8zM28.69 28.377a.533.533 0 0 0 .754-.754l-.8-.8a.533.533 0 0 0-.754.754l.8.8zM27.89 30.777a.534.534 0 0 0 .754 0l.8-.8a.533.533 0 0 0-.754-.754l-.8.8a.534.534 0 0 0 0 .754zM31.09 26.823l-.8.8a.532.532 0 0 0 .236.9.534.534 0 0 0 .519-.145l.8-.8a.534.534 0 0 0-.755-.754z"/></symbol><symbol id="trees" viewBox="0 0 32 32"><path fill="#fff" style="fill:var(--color1,#fff)" d="M32 14.934a4.796 4.796 0 0 0-1.687-3.654 4.205 4.205 0 0 0 .62-2.213 4.274 4.274 0 0 0-3.771-4.238 4.257 4.257 0 0 0-7.692-3.035 4.253 4.253 0 0 0-6.94 0 4.261 4.261 0 0 0-7.692 3.034 4.273 4.273 0 0 0-3.771 4.238 4.205 4.205 0 0 0 .62 2.213 4.8 4.8 0 0 0 0 7.307 4.209 4.209 0 0 0-.62 2.214 4.272 4.272 0 0 0 4.267 4.267h3.2v5.867h-1.6a.533.533 0 1 0 0 1.066h18.133a.533.533 0 1 0 0-1.066h-1.6v-5.867h3.2a4.272 4.272 0 0 0 4.267-4.267 4.205 4.205 0 0 0-.62-2.213 4.797 4.797 0 0 0 1.687-3.654zM5.334 23.995a3.203 3.203 0 0 1-3.2-3.195 3.165 3.165 0 0 1 .7-1.994.534.534 0 0 0-.119-.775 3.733 3.733 0 0 1 0-6.195.533.533 0 0 0 .119-.775 3.165 3.165 0 0 1-.7-1.994 3.203 3.203 0 0 1 3.2-3.2l.138.007a.53.53 0 0 0 .531-.686 3.2 3.2 0 0 1 5.956-2.285c0 .005 0 .011-.004.016-.066.2-.118.405-.154.612l-.017.107a3.99 3.99 0 0 0-.014 1.19 4.273 4.273 0 0 0-3.771 4.239 4.205 4.205 0 0 0 .62 2.213l-.027.026-2.483-2.483a.533.533 0 0 0-.754.754l2.513 2.513a4.794 4.794 0 0 0 .751 6.497 4.177 4.177 0 0 0-.467 1.078l-1.909-1.909a.533.533 0 0 0-.754.754l2.522 2.522c.004.074.005.149.013.221.005.05.015.098.022.147.014.099.028.197.049.293.012.058.029.113.044.17.022.085.044.171.071.254.019.059.042.116.064.174a3.868 3.868 0 0 0 .289.615 4.626 4.626 0 0 0 .232.358 4.444 4.444 0 0 0 .395.477c.053.058.113.113.171.167.029.028.057.059.087.085H5.334zm10.133 6.938H9.6v-5.867h5.867v5.867zM16 6.934a.533.533 0 0 0-.533.533v3.779l-2.423-2.423a.533.533 0 0 0-.754.754l3.177 3.177v7.292l-2.29-2.29a.533.533 0 0 0-.754.754l3.044 3.044V24h-3.2a3.203 3.203 0 0 1-3.2-3.2 3.165 3.165 0 0 1 .7-1.994.534.534 0 0 0-.119-.775 3.733 3.733 0 0 1 0-6.195.533.533 0 0 0 .119-.775 3.165 3.165 0 0 1-.7-1.994 3.203 3.203 0 0 1 3.2-3.2l.138.007a.515.515 0 0 0 .442-.206.53.53 0 0 0 .089-.48 3.194 3.194 0 0 1-.077-1.531A3.202 3.202 0 0 1 16 1.066a3.2 3.2 0 0 1 3.144 2.617 3.164 3.164 0 0 1-.08 1.504.53.53 0 0 0 .089.48.52.52 0 0 0 .442.206l.138-.007a3.203 3.203 0 0 1 3.2 3.2 3.165 3.165 0 0 1-.7 1.994.534.534 0 0 0 .119.775 3.733 3.733 0 0 1 0 6.195.533.533 0 0 0-.119.775c.455.565.702 1.269.7 1.994a3.203 3.203 0 0 1-3.2 3.2h-3.2v-7.283a.482.482 0 0 0 .11-.074l3.467-3.467a.533.533 0 0 0-.754-.754l-2.823 2.823V7.465A.533.533 0 0 0 16 6.932zm6.4 23.999h-5.867v-5.867H22.4v5.867zm6.741-12.161a.758.758 0 0 0 .025.035c.455.565.702 1.269.7 1.994a3.203 3.203 0 0 1-3.2 3.2h-4.114c.03-.027.058-.058.087-.085a2.99 2.99 0 0 0 .299-.308 4.361 4.361 0 0 0 .498-.694c.04-.07.077-.142.114-.213l.082-.17c.034-.076.063-.154.093-.232.022-.058.045-.115.064-.174.027-.083.049-.169.071-.254.014-.057.032-.112.044-.17.021-.097.035-.195.049-.293.007-.049.017-.097.022-.147a4.205 4.205 0 0 0-.595-2.672 4.788 4.788 0 0 0 1.674-3.42l1.99-1.99a.533.533 0 0 0-.754-.754l-1.366 1.366a4.793 4.793 0 0 0-1.544-2.507A4.203 4.203 0 0 0 24 9.069a4.274 4.274 0 0 0-3.771-4.238 4.023 4.023 0 0 0-.016-1.19c-.005-.036-.01-.073-.017-.107a4.153 4.153 0 0 0-.154-.612c0-.005 0-.011-.004-.016a3.2 3.2 0 0 1 5.956 2.285.53.53 0 0 0 .089.48.52.52 0 0 0 .442.206l.14-.009a3.203 3.203 0 0 1 3.2 3.2 3.165 3.165 0 0 1-.7 1.994.534.534 0 0 0 .119.775 3.733 3.733 0 0 1 0 6.195.533.533 0 0 0-.144.74z"/></symbol><symbol id="coffee" viewBox="0 0 32 32"><path fill="#fff" style="fill:var(--color1,#fff)" d="M29.486 0H8.153a.533.533 0 0 0-.533.533v5.333a2.67 2.67 0 0 0 2.667 2.667h2.133v1.6h-.533a.533.533 0 0 0-.5-.533l-8.533-.533a.533.533 0 0 0-.565.499l-.001.034v2.133c0 .295.239.533.533.533h.033l8.533-.533a.532.532 0 0 0 .5-.533h.533v1.067c0 .295.239.533.533.533h1.067v1.6c0 .295.239.533.533.533h.533v.533a.533.533 0 1 0 1.066 0v-.533h.533a.533.533 0 0 0 .533-.533v-1.6h1.067a.533.533 0 0 0 .533-.533V8.534h2.667v14.933h-5.333a2.67 2.67 0 0 0 2.667-2.667v-3.2a.533.533 0 0 0-.533-.533h-5.333a.533.533 0 0 0-.533.533v.533h-.533a.533.533 0 0 0 0 1.066h.533v1.6a2.67 2.67 0 0 0 2.667 2.667H10.82a2.67 2.67 0 0 0-2.667 2.667v5.333c0 .295.239.533.533.533h20.8a.533.533 0 0 0 .533-.533V.533A.533.533 0 0 0 29.486 0zM10.819 10.699l-7.467.467v-.998l7.467.467v.065zM13.486 20.8v-2.667h4.267V20.8a1.6 1.6 0 0 1-1.6 1.6h-1.067a1.6 1.6 0 0 1-1.6-1.6zm8 10.133H9.219v-4.8a1.6 1.6 0 0 1 1.6-1.6h10.667v6.4zm-5.334-17.066h-1.067V12.8h1.067v1.067zm1.601-2.134h-4.267v-3.2h4.267v3.2zm11.2 19.2h-6.4V8a.533.533 0 0 0-.533-.533H10.287a1.6 1.6 0 0 1-1.6-1.6v-4.8h20.267v29.867z"/><path fill="#fff" style="fill:var(--color1,#fff)" d="M25.219 6.933a2.667 2.667 0 1 0 0-5.334 2.667 2.667 0 0 0 0 5.334zm0-3.2h-1.502a1.6 1.6 0 1 1 .001 1.066h1.502a.533.533 0 0 0 0-1.066zM24.152 11.733a.533.533 0 0 0-.533.533v1.067a.533.533 0 0 0 1.066 0v-1.067a.533.533 0 0 0-.533-.533zM24.152 14.933a.533.533 0 0 0-.533.533v1.067a.533.533 0 0 0 1.066 0v-1.067a.533.533 0 0 0-.533-.533zM24.152 18.133a.533.533 0 0 0-.533.533v1.067a.533.533 0 0 0 1.066 0v-1.067a.533.533 0 0 0-.533-.533z"/></symbol><symbol id="kitchen" viewBox="0 0 32 32"><path fill="#fff" style="fill:var(--color1,#fff)" d="M31.467 6.933H19.734a.533.533 0 0 0-.533.533v12.8h-2.667v-.533h.533a.533.533 0 1 0 0-1.066h-5.333a.533.533 0 1 0 0 1.066h.533v.533H6.934v-.533h.533a.533.533 0 1 0 0-1.066H2.134a.533.533 0 1 0 0 1.066h.533v.533H.534a.533.533 0 0 0-.533.533v10.667c0 .295.239.533.533.533h30.933a.533.533 0 0 0 .533-.533v-24a.533.533 0 0 0-.533-.533zm-18.134 12.8h2.133v.533h-2.133v-.533zm-9.6 0h2.133v.533H3.733v-.533zm4.8 11.2H1.066v-6.4h7.467v6.4zm0-7.466H1.066v-2.133h7.467v2.133zM19.2 30.933H9.6v-9.6h9.6v9.6zm11.733 0H20.266v-14.4h10.667v14.4zm0-15.466H20.266V8h10.667v7.467z"/><path fill="#fff" style="fill:var(--color1,#fff)" d="M11.2 29.867h6.4a.533.533 0 0 0 .533-.533v-6.4a.533.533 0 0 0-.533-.533h-6.4a.533.533 0 0 0-.533.533v6.4c0 .295.239.533.533.533zm.533-6.4h5.333V28.8h-5.333v-5.333zM21.333 14.933a.533.533 0 0 0 .533-.533v-2.133a.533.533 0 1 0-1.066 0V14.4c0 .295.239.533.533.533zM21.333 20.267a.533.533 0 0 0 .533-.533v-2.133a.533.533 0 1 0-1.066 0v2.133c0 .295.239.533.533.533zM1.257 9.476c.096.08.217.124.343.124h16a.533.533 0 0 0 .41-.876l-5.333-6.4a.53.53 0 0 0-.41-.191h-.533v-1.6A.533.533 0 0 0 11.201 0h-3.2a.533.533 0 0 0-.533.533v1.6h-.533a.535.535 0 0 0-.41.191l-5.333 6.4a.533.533 0 0 0 .067.751zm7.277-8.409h2.133v1.067H8.534V1.067zM7.184 3.2h4.833l4.445 5.333H2.739L7.184 3.2z"/></symbol><symbol id="wifi" viewBox="0 0 32 32"><path fill="#fff" style="fill:var(--color1,#fff)" d="M22.199 18.734c-1.659-1.598-3.849-2.478-6.167-2.478a8.845 8.845 0 0 0-7.02 3.424 1.979 1.979 0 0 0 .169 2.608l.004.004c.374.374.87.579 1.397.579a2 2 0 0 0 1.58-.771 4.888 4.888 0 0 1 3.872-1.879 4.888 4.888 0 0 1 3.872 1.879 2 2 0 0 0 1.58.771c.527 0 1.023-.206 1.396-.579l.004-.004a1.979 1.979 0 0 0 .168-2.608 8.983 8.983 0 0 0-.853-.947zm.016 2.895-.003.003a1.032 1.032 0 0 1-.73.302c-.329 0-.635-.15-.841-.412a5.817 5.817 0 0 0-4.61-2.238 5.817 5.817 0 0 0-4.61 2.238 1.064 1.064 0 0 1-.841.412c-.275 0-.534-.107-.73-.302l-.003-.003a1.04 1.04 0 0 1-.095-1.371 7.906 7.906 0 0 1 6.279-3.062 7.906 7.906 0 0 1 6.279 3.063c.319.409.278.998-.095 1.371z"/><path fill="#fff" style="fill:var(--color1,#fff)" d="M16.031 22.312c-.756 0-1.466.294-2.001.829s-.829 1.245-.829 2c0 .756.294 1.466.829 2s1.245.829 2.001.829 1.466-.294 2-.829a2.832 2.832 0 0 0 0-4.001 2.812 2.812 0 0 0-2-.829zm1.336 4.165c-.357.357-.831.554-1.336.554s-.979-.197-1.336-.554c-.357-.357-.554-.831-.554-1.336s.197-.979.554-1.336c.357-.357.832-.554 1.336-.554s.979.197 1.336.554a1.89 1.89 0 0 1 0 2.672zM31.544 10.956a20.94 20.94 0 0 0-11.773-6.517A20.926 20.926 0 0 0 7.614 5.864a.47.47 0 1 0 .377.861c7.612-3.336 16.341-1.681 22.238 4.215.212.212.422.431.623.651a1.04 1.04 0 0 1-.038 1.44 1.038 1.038 0 0 1-.766.307 1.023 1.023 0 0 1-.74-.335 17.98 17.98 0 0 0-.557-.582c-3.39-3.39-7.907-5.256-12.719-5.256h-.001c-4.813 0-9.331 1.868-12.72 5.258-.189.19-.376.385-.555.58-.192.21-.454.329-.74.335a1.039 1.039 0 0 1-.766-.307 1.04 1.04 0 0 1-.038-1.44 20.223 20.223 0 0 1 5.23-4.105.468.468 0 1 0-.45-.824 21.15 21.15 0 0 0-5.473 4.295 1.978 1.978 0 0 0 .067 2.739 1.97 1.97 0 0 0 1.405.583l.046-.001a1.953 1.953 0 0 0 1.412-.64c.17-.186.347-.371.526-.55 3.212-3.213 7.493-4.982 12.056-4.983h.001c4.562 0 8.843 1.769 12.055 4.981.18.18.357.365.528.552.366.4.868.628 1.412.64.542.012 1.069-.2 1.451-.582a1.977 1.977 0 0 0 .066-2.739z"/><path fill="#fff" style="fill:var(--color1,#fff)" d="M26.345 14.309a14.936 14.936 0 0 0-9.409-4.087.47.47 0 0 0-.056.938 13.995 13.995 0 0 1 9.684 4.731 1.05 1.05 0 0 1-.044 1.434 1.033 1.033 0 0 1-.771.305 1.037 1.037 0 0 1-.757-.358 11.857 11.857 0 0 0-8.96-4.044 11.857 11.857 0 0 0-8.96 4.045 1.04 1.04 0 0 1-.757.358 1.046 1.046 0 0 1-.821-1.732 13.984 13.984 0 0 1 9.691-4.737.47.47 0 0 0-.056-.938 14.922 14.922 0 0 0-10.34 5.055 1.988 1.988 0 0 0 1.491 3.292l.066-.001a1.997 1.997 0 0 0 1.432-.677c.197-.225.407-.445.624-.654 4.208-4.066 11.054-4.066 15.262 0 .216.209.426.428.623.653.363.412.885.659 1.433.677a1.958 1.958 0 0 0 1.465-.58 1.991 1.991 0 0 0 .085-2.718 15.508 15.508 0 0 0-.924-.962z"/></symbol><symbol id="facebook" viewBox="0 0 32 32"><path d="M21.329 5.313h2.921V.225C23.746.156 22.013 0 19.994 0c-4.212 0-7.097 2.649-7.097 7.519V12H8.249v5.688h4.648V32h5.699V17.689h4.46l.708-5.688h-5.169V8.082c.001-1.644.444-2.769 2.735-2.769z"/></symbol><symbol id="instagram" viewBox="0 0 32 32"><path d="M31.969 9.408c-.075-1.7-.35-2.869-.744-3.882a7.806 7.806 0 0 0-1.851-2.838A7.867 7.867 0 0 0 26.542.844C25.523.45 24.36.175 22.66.1 20.947.019 20.403 0 16.059 0s-4.888.019-6.595.094c-1.7.075-2.869.35-3.882.744a7.803 7.803 0 0 0-2.838 1.85A7.867 7.867 0 0 0 .9 5.52C.506 6.539.231 7.702.156 9.402c-.081 1.713-.1 2.257-.1 6.601s.019 4.888.094 6.595c.075 1.7.35 2.869.744 3.882a7.895 7.895 0 0 0 1.85 2.838 7.867 7.867 0 0 0 2.832 1.844c1.019.394 2.182.669 3.882.744 1.706.075 2.25.094 6.595.094s4.888-.019 6.595-.094c1.7-.075 2.869-.35 3.882-.744a8.184 8.184 0 0 0 4.682-4.682c.394-1.019.669-2.182.744-3.882.075-1.707.094-2.251.094-6.595s-.006-4.888-.081-6.595zm-2.882 13.065c-.069 1.563-.331 2.407-.55 2.969a5.31 5.31 0 0 1-3.038 3.038c-.563.219-1.413.481-2.969.55-1.688.075-2.194.094-6.464.094s-4.782-.019-6.464-.094c-1.563-.069-2.407-.331-2.969-.55a4.926 4.926 0 0 1-1.838-1.194 4.974 4.974 0 0 1-1.194-1.838c-.219-.563-.481-1.413-.55-2.969-.075-1.688-.094-2.194-.094-6.464s.019-4.782.094-6.464c.069-1.563.331-2.407.55-2.969a4.868 4.868 0 0 1 1.2-1.838A4.974 4.974 0 0 1 6.639 3.55c.563-.219 1.413-.481 2.969-.55 1.688-.075 2.194-.094 6.464-.094 4.276 0 4.782.019 6.464.094 1.563.069 2.407.331 2.969.55a4.914 4.914 0 0 1 1.838 1.194 4.974 4.974 0 0 1 1.194 1.838c.219.563.481 1.413.55 2.969.075 1.688.094 2.194.094 6.464s-.019 4.77-.094 6.458z"/><path d="M16.059 7.783c-4.538 0-8.22 3.682-8.22 8.22s3.682 8.22 8.22 8.22 8.22-3.682 8.22-8.22-3.682-8.22-8.22-8.22zm0 13.552a5.333 5.333 0 0 1 0-10.664 5.333 5.333 0 0 1 0 10.664zM26.524 7.458a1.919 1.919 0 1 1-3.838 0 1.919 1.919 0 0 1 3.838 0z"/></symbol><symbol id="twitter" viewBox="0 0 32 32"><path d="M32 6.078c-1.19.522-2.458.868-3.78 1.036a6.523 6.523 0 0 0 2.886-3.626 13.11 13.11 0 0 1-4.16 1.588A6.574 6.574 0 0 0 22.154 3c-3.632 0-6.556 2.948-6.556 6.562 0 .52.044 1.02.152 1.496-5.454-.266-10.28-2.88-13.522-6.862a6.605 6.605 0 0 0-.898 3.316 6.57 6.57 0 0 0 2.914 5.452 6.479 6.479 0 0 1-2.964-.808v.072c0 3.188 2.274 5.836 5.256 6.446a6.548 6.548 0 0 1-1.72.216 5.8 5.8 0 0 1-1.242-.112c.85 2.598 3.262 4.508 6.13 4.57a13.182 13.182 0 0 1-8.134 2.798c-.538 0-1.054-.024-1.57-.09A18.469 18.469 0 0 0 10.064 29c12.072 0 18.672-10 18.672-18.668 0-.29-.01-.57-.024-.848A13.087 13.087 0 0 0 32 6.078z"/></symbol></defs></svg>