<svg aria-hidden="true" style="position: absolute; width: 0; height: 0; overflow: hidden;" version="1.1" xmlns="http://www.w3.org/2000/svg" xmlns:xlink="http://www.w3.org/1999/xlink">
<defs>
<symbol id="Frame-17" viewBox="0 0 32 32">
<path fill="#fff" style="fill: var(--color1, #fff)" d="M30.62 16.817l-1.412-4.344c-0.712-2.189-1.985-4.169-3.682-5.724s-3.78-2.652-6.023-3.17l-3.101-0.717c-0.001-0-8.604-1.872-8.604-1.872-0.254-0.055-0.503 0.106-0.559 0.359s0.106 0.504 0.359 0.559l8.592 1.869c0 0 0.018 0.004 0.018 0.004 1.96 0.432 3.41 2.057 3.609 4.048 0.243 2.434 0.771 5.14 1.568 8.044 1.060 3.863 1.008 7.092 0.778 9.121-0.181 1.595-0.497 2.718-0.659 3.221h-6.27c-0.259 0-0.47 0.21-0.47 0.47s0.21 0.47 0.47 0.47h6.337l0.994 1.666c0.041 0.069 0.019 0.13 0.002 0.16s-0.058 0.081-0.138 0.081h-19.958c-0.081 0-0.121-0.050-0.138-0.081s-0.040-0.091 0.002-0.16l0.994-1.667h10.028c0.259 0 0.47-0.21 0.47-0.47s-0.21-0.47-0.47-0.47h-9.947c-0.757-2.505-1.046-4.735-0.905-6.989 0.131-2.098 0.618-3.957 1.132-5.925 0.641-2.451 1.304-4.986 1.37-8.26 0.037-1.812-1.067-4.173-1.999-5.835-0.063-0.158 0.021-0.27 0.191-0.256l2.566 0.558c0.254 0.055 0.504-0.106 0.559-0.359s-0.106-0.504-0.359-0.559l-2.566-0.559c-0.903-0.232-1.695 0.837-1.209 1.633 0.717 1.277 1.914 3.672 1.88 5.357-0.064 3.163-0.713 5.643-1.34 8.041-1.027 3.927-1.998 7.639-0.177 13.56l-1.023 1.716c-0.205 0.344-0.209 0.757-0.012 1.105s0.555 0.556 0.955 0.556h19.958c0.4 0 0.757-0.208 0.955-0.556s0.193-0.761-0.012-1.105l-1.017-1.705c0.163-0.476 0.529-1.693 0.737-3.494 0.244-2.119 0.304-5.49-0.801-9.516-0.707-2.578-1.197-4.992-1.461-7.191 2.009 0.701 3.614 2.259 4.365 4.276 0.208 0.576 1.1 0.238 0.88-0.328-0.902-2.422-2.895-4.26-5.366-4.971-0.178-1.119-0.687-2.127-1.43-2.92l0.013 0.003c2.085 0.482 4.022 1.501 5.599 2.948s2.761 3.286 3.423 5.322l1.412 4.344c0.089 0.273 0.043 0.562-0.126 0.795s-0.43 0.365-0.717 0.365c-0.368 0-0.702-0.232-0.83-0.577l-1.399-3.756c-0.091-0.243-0.361-0.367-0.604-0.276s-0.367 0.361-0.276 0.604l1.399 3.755c0.265 0.711 0.952 1.188 1.71 1.188 0.591 0 1.129-0.274 1.477-0.752s0.442-1.075 0.259-1.637z"></path>
<path fill="#fff" style="fill: var(--color1, #fff)" d="M14.867 23.265c1.135 0 2.059-0.924 2.059-2.059v-10.478c0-1.135-0.924-2.059-2.059-2.059s-2.059 0.924-2.059 2.059v10.478c-0 1.135 0.924 2.059 2.059 2.059zM14.867 9.607c0.618 0 1.121 0.503 1.121 1.121v10.478c0 0.618-0.503 1.121-1.121 1.121s-1.121-0.503-1.121-1.121v-0.496h0.772c0.259 0 0.469-0.21 0.469-0.469s-0.21-0.469-0.469-0.469h-0.772v-1.705h0.772c0.259 0 0.469-0.21 0.469-0.469s-0.21-0.469-0.469-0.469h-0.772v-1.705h0.772c0.259 0 0.469-0.21 0.469-0.469s-0.21-0.469-0.469-0.469h-0.772v-1.705h0.772c0.259 0 0.469-0.21 0.469-0.469s-0.21-0.469-0.469-0.469h-0.772v-1.116c-0-0.618 0.503-1.121 1.121-1.121z"></path>
</symbol>
<symbol id="fridge" viewBox="0 0 32 32">
<path fill="#fff" style="fill: var(--color1, #fff)" d="M25.066 10.721v-9.034c-0-0.447-0.178-0.876-0.495-1.193s-0.745-0.494-1.193-0.495h-14.833c-0.447 0.001-0.876 0.178-1.193 0.495s-0.494 0.745-0.495 1.193v9.034c0 0.236 0.050 0.469 0.146 0.684s0.236 0.408 0.412 0.566c-0.175 0.158-0.316 0.35-0.412 0.566s-0.146 0.448-0.146 0.684v15.283c0.001 0.447 0.178 0.876 0.495 1.193s0.745 0.494 1.193 0.495h0.229v1.343c0 0.116 0.046 0.227 0.128 0.309s0.193 0.128 0.309 0.128h3.125c0.116 0 0.227-0.046 0.309-0.128s0.128-0.193 0.128-0.309v-1.343h6.375v1.343c0 0.116 0.046 0.227 0.128 0.309s0.193 0.128 0.309 0.128h3.125c0.116 0 0.227-0.046 0.309-0.128s0.128-0.193 0.128-0.309v-1.343h0.229c0.447-0.001 0.876-0.178 1.193-0.495s0.494-0.745 0.495-1.193v-15.283c-0-0.236-0.050-0.469-0.146-0.684s-0.237-0.408-0.412-0.566c0.175-0.158 0.316-0.35 0.412-0.566s0.146-0.448 0.146-0.684zM11.899 31.096h-2.25v-0.905h2.25v0.905zM22.274 31.096h-2.25v-0.905h2.25v0.905zM24.191 13.221v15.283c-0 0.215-0.086 0.422-0.238 0.574s-0.359 0.238-0.574 0.238h-14.833c-0.215-0-0.422-0.086-0.574-0.238s-0.238-0.359-0.238-0.574v-15.283c0-0.215 0.086-0.422 0.238-0.574s0.359-0.238 0.574-0.238h14.833c0.215 0 0.422 0.086 0.574 0.238s0.238 0.359 0.238 0.574zM8.545 11.534c-0.215-0-0.422-0.086-0.574-0.238s-0.238-0.359-0.238-0.574v-9.034c0-0.215 0.086-0.422 0.238-0.574s0.359-0.238 0.574-0.238h14.833c0.215 0 0.422 0.086 0.574 0.238s0.238 0.359 0.238 0.574v9.034c-0 0.215-0.086 0.422-0.238 0.574s-0.359 0.238-0.574 0.238h-14.833z"></path>
<path fill="#fff" style="fill: var(--color1, #fff)" d="M22.165 3.171h-1.625c-0.116 0-0.227 0.046-0.309 0.128s-0.128 0.193-0.128 0.309v5.25c0 0.116 0.046 0.227 0.128 0.309s0.193 0.128 0.309 0.128h1.625c0.116 0 0.227-0.046 0.309-0.128s0.128-0.193 0.128-0.309v-5.25c0-0.116-0.046-0.227-0.128-0.309s-0.193-0.128-0.309-0.128zM21.727 8.42h-0.75v-4.375h0.75v4.375z"></path>
<path fill="#fff" style="fill: var(--color1, #fff)" d="M20.54 20.19h1.625c0.116 0 0.227-0.046 0.309-0.128s0.128-0.193 0.128-0.309v-5.25c0-0.116-0.046-0.227-0.128-0.309s-0.193-0.128-0.309-0.128h-1.625c-0.116 0-0.227 0.046-0.309 0.128s-0.128 0.193-0.128 0.309v5.25c0 0.116 0.046 0.227 0.128 0.309s0.193 0.128 0.309 0.128zM20.977 14.94h0.75v4.375h-0.75v-4.375z"></path>
</symbol>
<symbol id="kettl" viewBox="0 0 30 32">
<path fill="#fff" style="fill: var(--color1, #fff)" d="M29.249 16.817l-1.412-4.344c-0.712-2.189-1.985-4.169-3.682-5.724s-3.78-2.652-6.023-3.17l-3.101-0.717c-0.001-0-8.604-1.872-8.604-1.872-0.254-0.055-0.503 0.106-0.559 0.359s0.106 0.504 0.359 0.559l8.592 1.869c0 0 0.018 0.004 0.018 0.004 1.96 0.432 3.41 2.057 3.609 4.048 0.243 2.434 0.771 5.14 1.568 8.044 1.060 3.863 1.008 7.092 0.778 9.121-0.181 1.595-0.497 2.718-0.659 3.221h-6.27c-0.259 0-0.47 0.21-0.47 0.47s0.21 0.47 0.47 0.47h6.337l0.994 1.666c0.041 0.069 0.019 0.13 0.002 0.16s-0.058 0.081-0.138 0.081h-19.958c-0.081 0-0.121-0.050-0.138-0.081s-0.040-0.091 0.002-0.16l0.994-1.667h10.028c0.259 0 0.47-0.21 0.47-0.47s-0.21-0.47-0.47-0.47h-9.947c-0.757-2.505-1.046-4.735-0.905-6.989 0.131-2.098 0.618-3.957 1.132-5.925 0.641-2.451 1.304-4.986 1.37-8.26 0.037-1.812-1.067-4.173-1.999-5.835-0.063-0.158 0.021-0.27 0.191-0.256l2.566 0.558c0.254 0.055 0.504-0.106 0.559-0.359s-0.106-0.504-0.359-0.559l-2.566-0.559c-0.903-0.232-1.695 0.837-1.209 1.633 0.717 1.277 1.914 3.672 1.88 5.357-0.064 3.163-0.713 5.643-1.34 8.041-1.027 3.927-1.998 7.639-0.177 13.56l-1.023 1.716c-0.205 0.344-0.209 0.757-0.012 1.105s0.555 0.556 0.955 0.556h19.958c0.4 0 0.757-0.208 0.955-0.556s0.193-0.761-0.012-1.105l-1.017-1.705c0.163-0.476 0.529-1.693 0.737-3.494 0.244-2.119 0.304-5.49-0.801-9.516-0.707-2.578-1.197-4.992-1.461-7.191 2.009 0.701 3.614 2.259 4.365 4.276 0.208 0.576 1.1 0.238 0.88-0.328-0.902-2.422-2.895-4.26-5.366-4.971-0.178-1.119-0.687-2.127-1.43-2.92l0.013 0.003c2.085 0.482 4.022 1.501 5.599 2.948s2.761 3.286 3.423 5.322l1.412 4.344c0.089 0.273 0.043 0.562-0.126 0.795s-0.43 0.365-0.717 0.365c-0.368 0-0.702-0.232-0.83-0.577l-1.399-3.755c-0.091-0.243-0.361-0.367-0.604-0.276s-0.367 0.361-0.276 0.604l1.399 3.755c0.265 0.711 0.952 1.188 1.71 1.188 0.591 0 1.129-0.274 1.477-0.752s0.442-1.075 0.259-1.637v0z"></path>
</symbol>
<symbol id="logo" viewBox="0 0 34 32">
<path d="M2.050 29.018v-0.398h-2.050v0.398h0.804v2.522h0.443v-2.522h0.804z"></path>
<path d="M4.787 31.539v-2.919h-0.443v1.246h-1.185v-1.246h-0.443v2.919h0.443v-1.275h1.185v1.275h0.443z"></path>
<path d="M7.581 31.539v-0.398h-1.423v-0.877h1.214v-0.394h-1.214v-0.853h1.423v-0.398h-1.866v2.919h1.866z"></path>
<path d="M11.508 30.407v-0.447h-1.066v0.377h0.623v0.164c0 0.096-0.011 0.18-0.033 0.254s-0.060 0.142-0.115 0.205c-0.057 0.066-0.127 0.116-0.209 0.152s-0.171 0.053-0.267 0.053c-0.087 0-0.168-0.015-0.242-0.045-0.074-0.033-0.137-0.077-0.189-0.131-0.036-0.038-0.066-0.079-0.090-0.123-0.022-0.047-0.040-0.103-0.053-0.168-0.011-0.068-0.019-0.152-0.025-0.25s-0.008-0.221-0.008-0.369 0.003-0.269 0.008-0.365c0.005-0.098 0.014-0.18 0.025-0.246 0.014-0.068 0.031-0.124 0.053-0.168 0.025-0.046 0.055-0.089 0.090-0.127 0.052-0.055 0.115-0.098 0.189-0.131s0.154-0.049 0.242-0.049c0.164 0 0.298 0.045 0.402 0.135 0.104 0.087 0.175 0.212 0.213 0.373h0.447c-0.022-0.126-0.060-0.243-0.115-0.353s-0.127-0.205-0.217-0.287c-0.087-0.082-0.193-0.146-0.316-0.193-0.12-0.049-0.258-0.074-0.414-0.074s-0.298 0.027-0.426 0.082c-0.126 0.052-0.239 0.128-0.34 0.23-0.071 0.071-0.126 0.146-0.164 0.226s-0.067 0.165-0.086 0.258c-0.016 0.093-0.026 0.197-0.029 0.312-0.003 0.112-0.004 0.238-0.004 0.377s0.001 0.267 0.004 0.381c0.003 0.112 0.012 0.215 0.029 0.308 0.019 0.093 0.048 0.179 0.086 0.258s0.093 0.154 0.164 0.226c0.101 0.101 0.216 0.179 0.344 0.234 0.129 0.052 0.269 0.078 0.422 0.078 0.156 0 0.301-0.026 0.435-0.078s0.257-0.137 0.369-0.254c0.096-0.104 0.163-0.22 0.201-0.349 0.041-0.128 0.061-0.287 0.061-0.476z"></path>
<path d="M14.175 31.539v-0.398h-1.406v-2.522h-0.443v2.919h1.849z"></path>
<path d="M16.992 31.539l-1.070-2.919h-0.357l-1.070 2.919h0.471l0.201-0.586h1.152l0.201 0.586h0.471zM16.197 30.576h-0.898l0.455-1.296 0.443 1.296z"></path>
<path d="M19.395 30.707c0-0.126-0.020-0.239-0.061-0.34-0.038-0.101-0.097-0.187-0.176-0.258-0.063-0.055-0.135-0.098-0.217-0.131-0.082-0.036-0.191-0.064-0.328-0.086l-0.332-0.049c-0.142-0.022-0.251-0.067-0.328-0.135-0.038-0.036-0.067-0.075-0.086-0.119-0.016-0.046-0.025-0.097-0.025-0.152 0-0.131 0.045-0.239 0.135-0.324 0.093-0.087 0.226-0.131 0.398-0.131 0.123 0 0.236 0.016 0.34 0.049 0.107 0.030 0.205 0.089 0.295 0.176l0.283-0.279c-0.126-0.118-0.26-0.202-0.402-0.254s-0.31-0.078-0.504-0.078c-0.153 0-0.29 0.020-0.41 0.061s-0.223 0.1-0.308 0.176c-0.082 0.076-0.146 0.168-0.193 0.275-0.044 0.104-0.066 0.219-0.066 0.344 0 0.238 0.071 0.424 0.213 0.558 0.131 0.123 0.316 0.201 0.553 0.234l0.344 0.049c0.087 0.014 0.153 0.029 0.197 0.045s0.085 0.042 0.123 0.078c0.076 0.068 0.115 0.169 0.115 0.303 0 0.142-0.053 0.253-0.16 0.332-0.104 0.076-0.252 0.115-0.443 0.115-0.15 0-0.286-0.019-0.406-0.057-0.12-0.041-0.234-0.115-0.34-0.221l-0.295 0.291c0.139 0.142 0.291 0.242 0.455 0.299s0.357 0.086 0.578 0.086c0.153 0 0.294-0.019 0.422-0.057s0.239-0.094 0.332-0.168c0.093-0.074 0.165-0.164 0.217-0.271s0.078-0.227 0.078-0.361z"></path>
<path d="M21.937 30.707c0-0.126-0.020-0.239-0.061-0.34-0.038-0.101-0.097-0.187-0.176-0.258-0.063-0.055-0.135-0.098-0.217-0.131-0.082-0.036-0.191-0.064-0.328-0.086l-0.332-0.049c-0.142-0.022-0.252-0.067-0.328-0.135-0.038-0.036-0.067-0.075-0.086-0.119-0.016-0.046-0.025-0.097-0.025-0.152 0-0.131 0.045-0.239 0.135-0.324 0.093-0.087 0.226-0.131 0.398-0.131 0.123 0 0.236 0.016 0.34 0.049 0.107 0.030 0.205 0.089 0.295 0.176l0.283-0.279c-0.126-0.118-0.26-0.202-0.402-0.254s-0.31-0.078-0.504-0.078c-0.153 0-0.29 0.020-0.41 0.061s-0.223 0.1-0.308 0.176c-0.082 0.076-0.146 0.168-0.193 0.275-0.044 0.104-0.066 0.219-0.066 0.344 0 0.238 0.071 0.424 0.213 0.558 0.131 0.123 0.316 0.201 0.553 0.234l0.344 0.049c0.087 0.014 0.153 0.029 0.197 0.045s0.085 0.042 0.123 0.078c0.077 0.068 0.115 0.169 0.115 0.303 0 0.142-0.053 0.253-0.16 0.332-0.104 0.076-0.252 0.115-0.443 0.115-0.15 0-0.286-0.019-0.406-0.057-0.12-0.041-0.234-0.115-0.34-0.221l-0.295 0.291c0.139 0.142 0.291 0.242 0.455 0.299s0.357 0.086 0.578 0.086c0.153 0 0.294-0.019 0.422-0.057s0.239-0.094 0.332-0.168c0.093-0.074 0.165-0.164 0.217-0.271s0.078-0.227 0.078-0.361z"></path>
<path d="M25.915 31.539v-2.919h-0.443v1.246h-1.185v-1.246h-0.443v2.919h0.443v-1.275h1.185v1.275h0.443z"></path>
<path d="M28.893 30.555v-1.935h-0.443v1.915c0 0.197-0.056 0.351-0.168 0.463-0.109 0.112-0.256 0.168-0.439 0.168s-0.329-0.056-0.439-0.168c-0.109-0.112-0.164-0.267-0.164-0.463v-1.915h-0.443v1.935c0 0.15 0.026 0.288 0.078 0.414 0.055 0.123 0.128 0.228 0.221 0.316s0.204 0.156 0.332 0.205c0.128 0.049 0.267 0.074 0.414 0.074s0.286-0.025 0.414-0.074c0.128-0.049 0.239-0.118 0.332-0.205 0.096-0.087 0.169-0.193 0.221-0.316 0.055-0.126 0.082-0.264 0.082-0.414z"></path>
<path d="M31.566 29.018v-0.398h-2.050v0.398h0.804v2.522h0.443v-2.522h0.804z"></path>
<path d="M34.057 30.707c0-0.126-0.020-0.239-0.062-0.34-0.038-0.101-0.097-0.187-0.176-0.258-0.063-0.055-0.135-0.098-0.217-0.131-0.082-0.036-0.191-0.064-0.328-0.086l-0.332-0.049c-0.142-0.022-0.251-0.067-0.328-0.135-0.038-0.036-0.067-0.075-0.086-0.119-0.016-0.046-0.025-0.097-0.025-0.152 0-0.131 0.045-0.239 0.135-0.324 0.093-0.087 0.225-0.131 0.398-0.131 0.123 0 0.236 0.016 0.34 0.049 0.107 0.030 0.205 0.089 0.295 0.176l0.283-0.279c-0.126-0.118-0.26-0.202-0.402-0.254s-0.31-0.078-0.504-0.078c-0.153 0-0.29 0.020-0.41 0.061s-0.223 0.1-0.308 0.176c-0.082 0.076-0.146 0.168-0.193 0.275-0.044 0.104-0.066 0.219-0.066 0.344 0 0.238 0.071 0.424 0.213 0.558 0.131 0.123 0.316 0.201 0.553 0.234l0.344 0.049c0.087 0.014 0.153 0.029 0.197 0.045s0.085 0.042 0.123 0.078c0.077 0.068 0.115 0.169 0.115 0.303 0 0.142-0.053 0.253-0.16 0.332-0.104 0.076-0.251 0.115-0.443 0.115-0.15 0-0.286-0.019-0.406-0.057-0.12-0.041-0.234-0.115-0.34-0.221l-0.295 0.291c0.139 0.142 0.291 0.242 0.455 0.299s0.357 0.086 0.578 0.086c0.153 0 0.294-0.019 0.422-0.057s0.239-0.094 0.332-0.168c0.093-0.074 0.165-0.164 0.217-0.271s0.078-0.227 0.078-0.361z"></path>
<path d="M18.292 21.888l15.395 2.336v-13.835l-15.724-7.954-9.771-2.027-7.81 6.329v17.080l17.911-1.928zM0.003 24.237v-17.682l8.089-6.555 9.996 2.074 15.977 8.082v14.508l-15.781-2.394-18.281 1.968z"></path>
<path d="M32.335 11.738l-3.154 3.28-0.273-0.262 3.154-3.28 0.273 0.262z"></path>
<path d="M23.609 15.872l2.775 2.145-0.231 0.299-2.775-2.145 0.231-0.3z"></path>
<path d="M28.794 23.844v-19.87h0.378v19.87h-0.378z"></path>
<path d="M26.043 13.004v-12.499h0.378v12.499h-0.378z"></path>
<path d="M26.043 26.619v-14.95h0.378v14.95h-0.378z"></path>
<path d="M32.703 13.562h-2.145v-0.378h2.145v0.378z"></path>
<path d="M7.951 23.15v-22.897h0.378v22.897h-0.378z"></path>
<path d="M17.917 22.14v-19.87h0.378v19.87h-0.378z"></path>
</symbol>
<symbol id="park" viewBox="0 0 32 32">
<path fill="#fff" style="fill: var(--color1, #fff)" d="M16 0c-6.764 0-12.267 5.79-12.267 12.907 0 6.974 11.404 18.452 11.89 18.938 0.104 0.103 0.241 0.156 0.377 0.156s0.273-0.052 0.377-0.156c0.485-0.485 11.89-11.963 11.89-18.937 0-7.117-5.503-12.907-12.267-12.907zM16 30.703c-1.994-2.068-11.2-11.938-11.2-17.796 0-6.529 5.025-11.84 11.2-11.84s11.2 5.311 11.2 11.84c0 5.856-9.206 15.727-11.2 17.796z"></path>
<path fill="#fff" style="fill: var(--color1, #fff)" d="M16 2.667c-5.293 0-9.6 4.307-9.6 9.6s4.307 9.6 9.6 9.6c5.293 0 9.6-4.307 9.6-9.6s-4.307-9.6-9.6-9.6zM16 20.8c-4.706 0-8.533-3.828-8.533-8.533s3.828-8.533 8.533-8.533c4.706 0 8.533 3.828 8.533 8.533s-3.828 8.533-8.533 8.533z"></path>
<path fill="#fff" style="fill: var(--color1, #fff)" d="M16 26.133c-0.294 0-0.533 0.239-0.533 0.533v4.8c0 0.294 0.239 0.533 0.533 0.533s0.533-0.239 0.533-0.533v-4.8c0-0.294-0.239-0.533-0.533-0.533z"></path>
<path fill="#fff" style="fill: var(--color1, #fff)" d="M17.067 8.533h-2.133c-0.294 0-0.533 0.239-0.533 0.533v2.133c0 0.294 0.239 0.533 0.533 0.533h2.133c0.882 0 1.6-0.718 1.6-1.6s-0.718-1.6-1.6-1.6zM17.067 10.667h-1.6v-1.067h1.6c0.294 0 0.533 0.239 0.533 0.533s-0.239 0.533-0.533 0.533z"></path>
<path fill="#fff" style="fill: var(--color1, #fff)" d="M17.067 6.4h-4.267c-0.294 0-0.533 0.239-0.533 0.533v10.667c0 0.294 0.239 0.533 0.533 0.533h2.133c0.294 0 0.533-0.239 0.533-0.533v-3.733h1.6c2.059 0 3.733-1.675 3.733-3.733s-1.675-3.733-3.733-3.733zM17.067 12.8h-2.133c-0.294 0-0.533 0.239-0.533 0.533v3.733h-1.067v-9.6h3.733c1.47 0 2.667 1.196 2.667 2.667s-1.196 2.667-2.667 2.667z"></path>
<path fill="#fff" style="fill: var(--color1, #fff)" d="M31.467 30.933h-2.133c-0.294 0-0.533 0.239-0.533 0.533s0.239 0.533 0.533 0.533h2.133c0.294 0 0.533-0.239 0.533-0.533s-0.239-0.533-0.533-0.533z"></path>
<path fill="#fff" style="fill: var(--color1, #fff)" d="M12.8 30.933h-12.267c-0.294 0-0.533 0.239-0.533 0.533s0.239 0.533 0.533 0.533h12.267c0.294 0 0.533-0.239 0.533-0.533s-0.239-0.533-0.533-0.533z"></path>
<path fill="#fff" style="fill: var(--color1, #fff)" d="M25.6 30.933h-6.4c-0.294 0-0.533 0.239-0.533 0.533s0.239 0.533 0.533 0.533h6.4c0.294 0 0.533-0.239 0.533-0.533s-0.239-0.533-0.533-0.533z"></path>
</symbol>
<symbol id="plug" viewBox="0 0 32 32">
<path fill="#fff" style="fill: var(--color1, #fff)" d="M26.347 23.994c0.563-0.631 0.537-1.591-0.058-2.191l-1.581-1.581c2.117-2.759 1.865-6.66-0.59-9.123l-6.83-6.831 0.138-0.138c0.945-0.945 0.945-2.476 0-3.421s-2.476-0.945-3.421 0l-2.804 2.804-3.025-3.025c-0.65-0.65-1.704-0.65-2.354 0s-0.65 1.704 0 2.354l3.025 3.025-2.979 2.979-3.025-3.025c-0.65-0.65-1.704-0.65-2.354 0s-0.65 1.704 0 2.354l3.025 3.025-2.804 2.804c-0.945 0.945-0.945 2.476 0 3.421s2.476 0.945 3.421 0l0.138-0.138 6.831 6.831c2.462 2.46 6.366 2.712 9.123 0.59l1.581 1.581c0.598 0.6 1.562 0.626 2.191 0.058l5.652 5.652h2.354v-2.354l-5.653-5.652zM6.575 2.088c-0.234-0.234-0.234-0.612 0-0.846s0.612-0.234 0.846 0l3.025 3.025-0.846 0.846-3.025-3.025zM1.242 7.421c-0.234-0.234-0.234-0.612 0-0.846s0.612-0.234 0.846 0l3.025 3.025-0.846 0.846-3.025-3.025zM3.513 16.534l-0.138 0.138c-0.536 0.52-1.393 0.506-1.913-0.030-0.508-0.525-0.508-1.358 0-1.882l13.296-13.296c0.536-0.52 1.393-0.506 1.913 0.030 0.508 0.525 0.508 1.358 0 1.882l-13.158 13.158zM20.149 23.364c-2.293 2.287-6.004 2.287-8.297 0l-6.831-6.831 11.512-11.512 6.831 6.831c2.287 2.293 2.287 6.004 0 8.297l-3.215 3.215zM23.311 25.536c-0.208 0.208-0.546 0.208-0.754 0l-1.535-1.535 2.979-2.979 1.535 1.535c0.208 0.208 0.208 0.546 0 0.754l-2.225 2.225zM30.934 30.933h-0.846l-5.333-5.333 0.846-0.846 5.333 5.333v0.846z"></path>
<path fill="#fff" style="fill: var(--color1, #fff)" d="M19.724 19.635l-1.6-8.533c-0.055-0.289-0.334-0.48-0.623-0.425-0.105 0.020-0.202 0.071-0.278 0.146l-1.562 1.562-0.766-1.916c-0.067-0.166-0.213-0.288-0.388-0.324-0.176-0.037-0.358 0.017-0.484 0.145l-2.667 2.667c-0.151 0.151-0.197 0.377-0.118 0.575l2.133 5.333c0.109 0.274 0.42 0.407 0.693 0.297 0.067-0.027 0.128-0.067 0.179-0.118l1.757-1.756 2.823 2.823c0.209 0.208 0.546 0.207 0.754-0.001 0.124-0.124 0.179-0.302 0.147-0.475zM16.377 16.156c-0.208-0.208-0.546-0.208-0.754 0l-1.562 1.562-1.702-4.255 1.846-1.846 0.766 1.916c0.109 0.274 0.42 0.407 0.693 0.297 0.067-0.027 0.128-0.067 0.179-0.118l1.418-1.418 1.096 5.845-1.982-1.981z"></path>
</symbol>
<symbol id="shower" viewBox="0 0 32 32">
<path fill="#fff" style="fill: var(--color1, #fff)" d="M26.933 0c-0.884 0-1.6 0.716-1.6 1.6v0.533h-11.733c-1.472 0.002-2.665 1.195-2.667 2.667v2.667h-1.067c-0.884 0-1.6 0.716-1.6 1.6v1.837c-2.323 1.432-3.737 3.967-3.733 6.696v0.631c-0.637 0.225-1.064 0.826-1.067 1.502v1.067c0 0.295 0.239 0.533 0.533 0.533h17.067c0.295 0 0.533-0.239 0.533-0.533v-1.067c-0.003-0.676-0.43-1.277-1.067-1.502v-0.631c0.003-2.124-0.841-4.161-2.347-5.659-0.418-0.403-0.884-0.755-1.387-1.046v-1.828c0-0.884-0.716-1.6-1.6-1.6h-1.067v-1.6c0-0.295 0.239-0.533 0.533-0.533h10.667v1.067c0 0.884 0.716 1.6 1.6 1.6h1.6v-8h-1.6zM20.533 19.733v0.533h-16v-0.533c0-0.295 0.239-0.533 0.533-0.533h14.933c0.295 0 0.533 0.239 0.533 0.533zM17.435 12.697c1.303 1.299 2.035 3.064 2.031 4.903v0.533h-13.867v-0.533c-0.002-2.41 1.271-4.641 3.346-5.867h7.179c0.477 0.262 0.918 0.586 1.31 0.963zM15.2 8.533c0.295 0 0.533 0.239 0.533 0.533v1.6h-6.4v-1.6c0-0.295 0.239-0.533 0.533-0.533h5.333zM25.333 4.267h-10.667c-0.884 0-1.6 0.716-1.6 1.6v1.6h-1.067v-2.667c0-0.884 0.716-1.6 1.6-1.6h11.733v1.067zM27.467 6.933h-0.533c-0.295 0-0.533-0.239-0.533-0.533v-4.8c0-0.295 0.239-0.533 0.533-0.533h0.533v5.867z"></path>
<path fill="#fff" style="fill: var(--color1, #fff)" d="M12.533 22.4c-0.295 0-0.533 0.239-0.533 0.533v2.133c0 0.295 0.239 0.533 0.533 0.533s0.533-0.239 0.533-0.533v-2.133c0-0.295-0.239-0.533-0.533-0.533z"></path>
<path fill="#fff" style="fill: var(--color1, #fff)" d="M12.533 26.667c-0.295 0-0.533 0.239-0.533 0.533v2.133c0 0.295 0.239 0.533 0.533 0.533s0.533-0.239 0.533-0.533v-2.133c0-0.295-0.239-0.533-0.533-0.533z"></path>
<path fill="#fff" style="fill: var(--color1, #fff)" d="M18.933 24.533c-0.295 0-0.533 0.239-0.533 0.533v2.133c0 0.295 0.239 0.533 0.533 0.533s0.533-0.239 0.533-0.533v-2.133c0-0.295-0.239-0.533-0.533-0.533z"></path>
<path fill="#fff" style="fill: var(--color1, #fff)" d="M14.667 24.533c-0.295 0-0.533 0.239-0.533 0.533v2.133c0 0.295 0.239 0.533 0.533 0.533s0.533-0.239 0.533-0.533v-2.133c0-0.295-0.239-0.533-0.533-0.533z"></path>
<path fill="#fff" style="fill: var(--color1, #fff)" d="M10.4 24.533c-0.295 0-0.533 0.239-0.533 0.533v2.133c0 0.295 0.239 0.533 0.533 0.533s0.533-0.239 0.533-0.533v-2.133c0-0.295-0.239-0.533-0.533-0.533z"></path>
<path fill="#fff" style="fill: var(--color1, #fff)" d="M6.133 24.533c-0.295 0-0.533 0.239-0.533 0.533v2.133c0 0.295 0.239 0.533 0.533 0.533s0.533-0.239 0.533-0.533v-2.133c0-0.295-0.239-0.533-0.533-0.533z"></path>
<path fill="#fff" style="fill: var(--color1, #fff)" d="M8.267 22.4c-0.295 0-0.533 0.239-0.533 0.533v2.133c0 0.295 0.239 0.533 0.533 0.533s0.533-0.239 0.533-0.533v-2.133c0-0.295-0.239-0.533-0.533-0.533z"></path>
<path fill="#fff" style="fill: var(--color1, #fff)" d="M16.8 22.4c-0.295 0-0.533 0.239-0.533 0.533v2.133c0 0.295 0.239 0.533 0.533 0.533s0.533-0.239 0.533-0.533v-2.133c0-0.295-0.239-0.533-0.533-0.533z"></path>
<path fill="#fff" style="fill: var(--color1, #fff)" d="M16.8 26.667c-0.295 0-0.533 0.239-0.533 0.533v2.133c0 0.295 0.239 0.533 0.533 0.533s0.533-0.239 0.533-0.533v-2.133c0-0.295-0.239-0.533-0.533-0.533z"></path>
<path fill="#fff" style="fill: var(--color1, #fff)" d="M8.267 26.667c-0.295 0-0.533 0.239-0.533 0.533v2.133c0 0.295 0.239 0.533 0.533 0.533s0.533-0.239 0.533-0.533v-2.133c0-0.295-0.239-0.533-0.533-0.533z"></path>
<path fill="#fff" style="fill: var(--color1, #fff)" d="M10.4 28.8c-0.295 0-0.533 0.239-0.533 0.533v2.133c0 0.295 0.239 0.533 0.533 0.533s0.533-0.239 0.533-0.533v-2.133c0-0.295-0.239-0.533-0.533-0.533z"></path>
<path fill="#fff" style="fill: var(--color1, #fff)" d="M14.667 28.8c-0.295 0-0.533 0.239-0.533 0.533v2.133c0 0.295 0.239 0.533 0.533 0.533s0.533-0.239 0.533-0.533v-2.133c0-0.295-0.239-0.533-0.533-0.533z"></path>
</symbol>
<symbol id="temperature" viewBox="0 0 32 32">
<path fill="#fff" style="fill: var(--color1, #fff)" d="M14 32c-4.044 0-7.333-3.291-7.333-7.333 0-2.179 0.991-4.268 2.667-5.656v-14.344c0-2.573 2.093-4.667 4.667-4.667s4.667 2.093 4.667 4.667v14.344c1.676 1.388 2.667 3.477 2.667 5.656 0 4.043-3.289 7.333-7.333 7.333zM14 1.333c-1.837 0-3.333 1.496-3.333 3.333v14.667c0 0.209-0.099 0.407-0.265 0.532-1.504 1.132-2.401 2.927-2.401 4.801 0 3.308 2.692 6 6 6s6-2.692 6-6c0-1.875-0.897-3.669-2.401-4.801-0.167-0.125-0.265-0.323-0.265-0.532v-14.667c0-1.837-1.496-3.333-3.333-3.333z"></path>
<path fill="#fff" style="fill: var(--color1, #fff)" d="M14 28c-1.837 0-3.333-1.495-3.333-3.333s1.496-3.333 3.333-3.333c1.837 0 3.333 1.495 3.333 3.333s-1.496 3.333-3.333 3.333zM14 22.667c-1.103 0-2 0.897-2 2s0.897 2 2 2c1.103 0 2-0.897 2-2s-0.897-2-2-2z"></path>
<path fill="#fff" style="fill: var(--color1, #fff)" d="M14 22.667c-0.368 0-0.667-0.299-0.667-0.667v-14.667c0-0.368 0.299-0.667 0.667-0.667s0.667 0.299 0.667 0.667v14.667c0 0.368-0.299 0.667-0.667 0.667z"></path>
<path fill="#fff" style="fill: var(--color1, #fff)" d="M24.667 5.333h-2.667c-0.368 0-0.667-0.299-0.667-0.667s0.299-0.667 0.667-0.667h2.667c0.368 0 0.667 0.299 0.667 0.667s-0.299 0.667-0.667 0.667z"></path>
<path fill="#fff" style="fill: var(--color1, #fff)" d="M24.667 10.667h-2.667c-0.368 0-0.667-0.299-0.667-0.667s0.299-0.667 0.667-0.667h2.667c0.368 0 0.667 0.299 0.667 0.667s-0.299 0.667-0.667 0.667z"></path>
<path fill="#fff" style="fill: var(--color1, #fff)" d="M24.667 16h-2.667c-0.368 0-0.667-0.299-0.667-0.667s0.299-0.667 0.667-0.667h2.667c0.368 0 0.667 0.299 0.667 0.667s-0.299 0.667-0.667 0.667z"></path>
</symbol>
<symbol id="toilet" viewBox="0 0 32 32">
<path fill="#fff" style="fill: var(--color1, #fff)" d="M22.933 14.933h-0.533v-1.067h0.533c0.884 0 1.6-0.716 1.6-1.6v-9.165c0.832-0.293 1.268-1.204 0.975-2.036-0.225-0.64-0.83-1.067-1.509-1.066h-16c-0.882-0.002-1.598 0.712-1.599 1.593-0.001 0.678 0.426 1.283 1.066 1.509v9.165c0 0.884 0.716 1.6 1.6 1.6h0.533v1.067h-0.533c-1.472 0.002-2.665 1.195-2.667 2.667 0 0.295 0.239 0.533 0.533 0.533-0.010 3.564 2.080 6.799 5.333 8.254v5.079c0 0.294 0.239 0.533 0.533 0.533h6.4c0.295 0 0.533-0.239 0.533-0.533v-5.079c3.253-1.456 5.343-4.691 5.333-8.254 0.295 0 0.533-0.239 0.533-0.533-0.002-1.472-1.195-2.665-2.667-2.667zM7.467 1.6c0-0.295 0.239-0.533 0.533-0.533h16c0.295 0 0.533 0.239 0.533 0.533s-0.239 0.533-0.533 0.533h-16c-0.295 0-0.533-0.239-0.533-0.533zM9.067 12.8c-0.295 0-0.533-0.239-0.533-0.533v-9.067h14.933v9.067c0 0.295-0.239 0.533-0.533 0.533h-13.867zM21.333 13.867v1.067h-10.667v-1.067h10.667zM13.333 30.933v-4.132l0.050 0.013c0.053 0.016 0.107 0.028 0.16 0.043 0.195 0.055 0.392 0.104 0.591 0.146 0.095 0.020 0.191 0.037 0.287 0.053 0.165 0.029 0.331 0.053 0.498 0.072 0.101 0.012 0.202 0.025 0.304 0.034 0.217 0.018 0.435 0.028 0.653 0.031 0.041 0 0.080 0.006 0.121 0.006s0.081-0.005 0.121-0.006c0.218-0.002 0.436-0.013 0.653-0.031 0.102-0.009 0.204-0.022 0.306-0.034 0.165-0.020 0.33-0.043 0.493-0.072 0.098-0.017 0.195-0.035 0.292-0.053 0.194-0.040 0.386-0.089 0.576-0.142 0.059-0.017 0.119-0.030 0.179-0.047 0.015-0.005 0.032-0.008 0.047-0.013l0.003 4.131h-5.333zM18.997 25.549c-1.436 0.579-3.008 0.73-4.527 0.436-0.504-0.097-0.996-0.244-1.47-0.438-3.028-1.213-5.010-4.152-4.999-7.414h16c0.010 3.264-1.973 6.203-5.003 7.416zM7.558 17.067c0.227-0.639 0.831-1.066 1.509-1.067h13.867c0.678 0.001 1.282 0.428 1.509 1.067h-16.884z"></path>
<path fill="#fff" style="fill: var(--color1, #fff)" d="M13.867 4.8h-1.698c-0.295-0.833-1.209-1.27-2.042-0.975s-1.27 1.209-0.975 2.042 1.209 1.27 2.042 0.975c0.456-0.161 0.814-0.519 0.975-0.975h1.698c0.295 0 0.533-0.239 0.533-0.533s-0.239-0.533-0.533-0.533zM10.667 5.867c-0.295 0-0.533-0.239-0.533-0.533s0.239-0.533 0.533-0.533 0.533 0.239 0.533 0.533c0 0.295-0.239 0.533-0.533 0.533z"></path>
</symbol>
<symbol id="towels" viewBox="0 0 32 32">
<path fill="#fff" style="fill: var(--color1, #fff)" d="M32 9.066c-0.002-2.061-1.672-3.731-3.733-3.733h-16c-0.327-0.001-0.653 0.044-0.969 0.133-0.199 0.048-5.468 2.034-8.59 3.213h-0.004c-0.609 0.17-1.162 0.495-1.607 0.945-0.706 0.698-1.101 1.65-1.097 2.643 0.001 1.312 0.691 2.527 1.818 3.2-1.126 0.673-1.816 1.888-1.818 3.2 0.002 1.313 0.693 2.527 1.82 3.2-1.442 0.86-2.132 2.577-1.686 4.196s1.92 2.739 3.599 2.738h16c0.552-0 1.096-0.124 1.594-0.363 0.004 0 0.008 0 0.012 0l8.581-3.223c1.225-0.604 2.022-1.83 2.076-3.195s-0.644-2.65-1.818-3.348c0.266-0.154 0.51-0.344 0.725-0.564 0.706-0.697 1.102-1.649 1.098-2.641-0.005-1.311-0.695-2.523-1.819-3.197 0.265-0.154 0.508-0.343 0.722-0.563 0.706-0.697 1.101-1.649 1.097-2.641zM11.592 6.491c0.22-0.061 0.447-0.092 0.675-0.091h16c1.472 0.002 2.665 1.195 2.667 2.667 0.003 0.708-0.279 1.387-0.782 1.884-0.181 0.189-0.393 0.345-0.627 0.462-0.029 0.015-0.053 0.030-0.081 0.044-0.719 0.267-1.986 0.742-3.949 1.479l-2.37 0.89c0.533-1.156 0.44-2.503-0.246-3.574s-1.872-1.719-3.144-1.718h-13.615c2.655-1 5.257-1.973 5.474-2.042zM1.067 12.267c-0.003-0.709 0.28-1.389 0.785-1.887 0.322-0.327 0.727-0.562 1.171-0.68 0.013-0.004 0.029-0.009 0.044-0.015 0.218-0.057 0.442-0.086 0.667-0.085h16c1.472 0.002 2.665 1.195 2.667 2.667-0.004 0.998-0.561 1.911-1.446 2.372-0.016 0.006-0.031 0.013-0.046 0.020-0.365 0.182-0.767 0.277-1.175 0.275h-16c-1.472-0.002-2.665-1.195-2.667-2.667zM1.067 18.666c0.003-1.472 1.195-2.664 2.667-2.667h16c1.472 0.002 2.665 1.195 2.667 2.667-0.004 0.998-0.561 1.911-1.446 2.372-0.016 0.006-0.031 0.013-0.046 0.020-0.365 0.182-0.767 0.277-1.175 0.275h-16c-1.472-0.002-2.665-1.195-2.667-2.667zM3.733 27.733c-1.473 0-2.667-1.194-2.667-2.667s1.194-2.667 2.667-2.667h16c1.473 0 2.667 1.194 2.667 2.667s-1.194 2.667-2.667 2.667h-16zM30.933 21.866c0.003 0.708-0.279 1.387-0.782 1.884-0.192 0.194-0.412 0.358-0.653 0.485l-6.378 2.392c0.795-1.708 0.185-3.74-1.419-4.729l7.040-2.641c1.265 0.226 2.188 1.323 2.193 2.608zM30.933 15.466c0.003 0.708-0.279 1.387-0.782 1.884-0.181 0.189-0.393 0.345-0.627 0.462-0.029 0.016-0.057 0.030-0.082 0.044l-6.319 2.37c0.79-1.709 0.179-3.738-1.422-4.727l4.166-1.565c1.217-0.457 2.163-0.812 2.88-1.081 1.263 0.231 2.181 1.329 2.187 2.612z"></path>
<path fill="#fff" style="fill: var(--color1, #fff)" d="M20.8 12.267c0-0.295-0.239-0.533-0.533-0.533h-17.067c-0.295 0-0.533 0.239-0.533 0.533s0.239 0.533 0.533 0.533h17.067c0.295 0 0.533-0.239 0.533-0.533z"></path>
<path fill="#fff" style="fill: var(--color1, #fff)" d="M20.8 18.667c0-0.295-0.239-0.533-0.533-0.533h-17.067c-0.295 0-0.533 0.239-0.533 0.533s0.239 0.533 0.533 0.533h17.067c0.295 0 0.533-0.239 0.533-0.533z"></path>
<path fill="#fff" style="fill: var(--color1, #fff)" d="M20.267 24.533h-17.067c-0.295 0-0.533 0.239-0.533 0.533s0.239 0.533 0.533 0.533h17.067c0.295 0 0.533-0.239 0.533-0.533s-0.239-0.533-0.533-0.533z"></path>
<path fill="#fff" style="fill: var(--color1, #fff)" d="M5.333 1.067c-0.295 0-0.533 0.239-0.533 0.533v1.067c0 0.295 0.239 0.533 0.533 0.533s0.533-0.239 0.533-0.533v-1.067c0-0.295-0.239-0.533-0.533-0.533z"></path>
<path fill="#fff" style="fill: var(--color1, #fff)" d="M4.8 5.867c0 0.295 0.239 0.533 0.533 0.533s0.533-0.239 0.533-0.533v-1.067c0-0.295-0.239-0.533-0.533-0.533s-0.533 0.239-0.533 0.533v1.067z"></path>
<path fill="#fff" style="fill: var(--color1, #fff)" d="M4.267 3.2h-1.067c-0.295 0-0.533 0.239-0.533 0.533s0.239 0.533 0.533 0.533h1.067c0.295 0 0.533-0.239 0.533-0.533s-0.239-0.533-0.533-0.533z"></path>
<path fill="#fff" style="fill: var(--color1, #fff)" d="M6.4 4.267h1.067c0.295 0 0.533-0.239 0.533-0.533s-0.239-0.533-0.533-0.533h-1.067c-0.295 0-0.533 0.239-0.533 0.533s0.239 0.533 0.533 0.533z"></path>
<path fill="#fff" style="fill: var(--color1, #fff)" d="M31.044 29.223c-0.209-0.202-0.542-0.199-0.748 0.006s-0.209 0.538-0.006 0.748l0.8 0.8c0.209 0.202 0.542 0.199 0.748-0.007s0.209-0.538 0.006-0.748l-0.8-0.8z"></path>
<path fill="#fff" style="fill: var(--color1, #fff)" d="M28.69 28.377c0.209 0.202 0.542 0.199 0.748-0.006s0.209-0.538 0.006-0.748l-0.8-0.8c-0.209-0.202-0.542-0.199-0.748 0.006s-0.209 0.538-0.006 0.748l0.8 0.8z"></path>
<path fill="#fff" style="fill: var(--color1, #fff)" d="M27.89 30.777c0.208 0.208 0.546 0.208 0.754 0l0.8-0.8c0.202-0.209 0.199-0.542-0.006-0.748s-0.538-0.209-0.748-0.006l-0.8 0.8c-0.208 0.208-0.208 0.546 0 0.754z"></path>
<path fill="#fff" style="fill: var(--color1, #fff)" d="M31.090 26.823l-0.8 0.8c-0.139 0.134-0.194 0.332-0.145 0.519s0.194 0.332 0.381 0.381 0.385-0.007 0.519-0.145l0.8-0.8c0.202-0.209 0.199-0.542-0.007-0.748s-0.538-0.209-0.748-0.006z"></path>
</symbol>
<symbol id="trees" viewBox="0 0 32 32">
<path fill="#fff" style="fill: var(--color1, #fff)" d="M32 14.934c0.001-1.406-0.616-2.742-1.687-3.654 0.408-0.666 0.623-1.432 0.62-2.213-0.003-2.163-1.622-3.983-3.771-4.238 0.025-0.186 0.038-0.374 0.037-0.562 0.006-2.351-1.896-4.261-4.247-4.267-1.383-0.003-2.682 0.666-3.482 1.794-1.358-1.917-4.013-2.369-5.929-1.011-0.392 0.278-0.734 0.62-1.011 1.011-1.366-1.916-4.026-2.362-5.942-0.997-1.285 0.916-1.958 2.467-1.75 4.031-2.148 0.254-3.768 2.074-3.771 4.238-0.003 0.781 0.212 1.547 0.62 2.213-2.018 1.719-2.259 4.749-0.54 6.767 0.165 0.194 0.346 0.375 0.54 0.54-0.408 0.666-0.623 1.433-0.62 2.214 0.003 2.355 1.911 4.264 4.267 4.267h3.2v5.867h-1.6c-0.295 0-0.533 0.239-0.533 0.533s0.239 0.533 0.533 0.533h18.133c0.295 0 0.533-0.239 0.533-0.533s-0.239-0.533-0.533-0.533h-1.6v-5.867h3.2c2.355-0.003 4.264-1.911 4.267-4.267 0.003-0.781-0.212-1.547-0.62-2.213 1.071-0.912 1.687-2.247 1.687-3.654zM5.334 23.995c-1.765-0.002-3.196-1.43-3.2-3.195-0.002-0.725 0.245-1.429 0.7-1.994 0.184-0.23 0.146-0.566-0.084-0.75-0.011-0.009-0.023-0.017-0.035-0.025-1.711-1.151-2.165-3.471-1.014-5.181 0.269-0.4 0.613-0.744 1.014-1.014 0.244-0.165 0.309-0.496 0.144-0.74-0.008-0.012-0.016-0.023-0.025-0.035-0.455-0.565-0.702-1.269-0.7-1.994 0.002-1.767 1.433-3.198 3.2-3.2l0.138 0.007c0.172 0.009 0.338-0.069 0.442-0.206 0.106-0.136 0.139-0.315 0.089-0.48-0.5-1.695 0.47-3.474 2.165-3.974 1.507-0.444 3.113 0.271 3.791 1.689 0 0.005 0 0.011-0.004 0.016-0.066 0.2-0.118 0.405-0.154 0.612-0.006 0.036-0.011 0.072-0.017 0.107-0.064 0.394-0.069 0.795-0.014 1.19-2.149 0.255-3.769 2.075-3.771 4.239-0.003 0.781 0.212 1.547 0.62 2.213-0.010 0.009-0.018 0.018-0.027 0.026l-2.483-2.483c-0.212-0.205-0.55-0.199-0.754 0.013-0.2 0.207-0.2 0.534 0 0.741l2.513 2.513c-1.495 2.027-1.167 4.865 0.751 6.497-0.206 0.336-0.363 0.699-0.467 1.078l-1.909-1.909c-0.212-0.205-0.549-0.199-0.754 0.013-0.2 0.207-0.2 0.534 0 0.741l2.522 2.522c0.004 0.074 0.005 0.149 0.013 0.221 0.005 0.050 0.015 0.098 0.022 0.147 0.014 0.099 0.028 0.197 0.049 0.293 0.012 0.058 0.029 0.113 0.044 0.17 0.022 0.085 0.044 0.171 0.071 0.254 0.019 0.059 0.042 0.116 0.064 0.174 0.029 0.078 0.059 0.156 0.093 0.232 0.026 0.058 0.053 0.114 0.082 0.17 0.036 0.073 0.074 0.145 0.114 0.213 0.031 0.053 0.065 0.107 0.099 0.16 0.043 0.068 0.086 0.134 0.133 0.198 0.037 0.053 0.075 0.103 0.115 0.153 0.049 0.063 0.099 0.123 0.151 0.183 0.042 0.048 0.085 0.095 0.129 0.141 0.053 0.058 0.113 0.113 0.171 0.167 0.029 0.028 0.057 0.059 0.087 0.085h-4.114zM15.467 30.933h-5.867v-5.867h5.867v5.867zM16 6.934c-0.295 0-0.533 0.239-0.533 0.533v3.779l-2.423-2.423c-0.212-0.205-0.55-0.199-0.754 0.013-0.2 0.207-0.2 0.534 0 0.741l3.177 3.177v7.292l-2.29-2.29c-0.212-0.205-0.55-0.199-0.754 0.013-0.2 0.207-0.2 0.534 0 0.741l3.044 3.044v2.446h-3.2c-1.767-0.002-3.198-1.433-3.2-3.2-0.002-0.725 0.245-1.429 0.7-1.994 0.184-0.23 0.146-0.566-0.084-0.75-0.011-0.009-0.023-0.017-0.035-0.025-1.711-1.151-2.165-3.471-1.014-5.181 0.269-0.4 0.614-0.744 1.014-1.014 0.244-0.165 0.309-0.496 0.144-0.74-0.008-0.012-0.016-0.023-0.025-0.035-0.455-0.565-0.702-1.269-0.7-1.994 0.002-1.767 1.433-3.198 3.2-3.2l0.138 0.007c0.173 0.010 0.339-0.068 0.442-0.206 0.106-0.136 0.139-0.315 0.089-0.48-0.090-0.299-0.136-0.609-0.136-0.921 0-0.197 0.019-0.393 0.056-0.587 0-0.007 0-0.015 0.003-0.023 0.039-0.193 0.095-0.381 0.167-0.564 0.482-1.222 1.661-2.025 2.974-2.027 1.313 0.001 2.492 0.805 2.974 2.027 0.073 0.184 0.128 0.374 0.167 0.567 0 0.007 0 0.015 0.003 0.023 0.037 0.192 0.055 0.387 0.056 0.583-0 0.312-0.046 0.622-0.136 0.921-0.050 0.165-0.017 0.344 0.089 0.48 0.104 0.138 0.27 0.215 0.442 0.206l0.138-0.007c1.767 0.002 3.198 1.433 3.2 3.2 0.002 0.725-0.245 1.429-0.7 1.994-0.184 0.23-0.146 0.566 0.084 0.75 0.011 0.009 0.023 0.017 0.035 0.025 1.711 1.151 2.165 3.471 1.014 5.181-0.269 0.4-0.613 0.744-1.014 1.014-0.244 0.165-0.309 0.496-0.144 0.74 0.008 0.012 0.016 0.023 0.025 0.035 0.455 0.565 0.702 1.269 0.7 1.994-0.002 1.767-1.433 3.198-3.2 3.2h-3.2v-7.283c0.040-0.020 0.077-0.044 0.11-0.074l3.467-3.467c0.205-0.212 0.199-0.55-0.013-0.754-0.207-0.2-0.534-0.2-0.741 0l-2.823 2.823v-7.779c0-0.295-0.239-0.533-0.533-0.533zM22.4 30.933h-5.867v-5.867h5.867v5.867zM29.141 18.772c0.008 0.012 0.016 0.023 0.025 0.035 0.455 0.565 0.702 1.269 0.7 1.994-0.002 1.767-1.433 3.198-3.2 3.2h-4.114c0.030-0.027 0.058-0.058 0.087-0.085 0.059-0.053 0.116-0.109 0.171-0.167 0.044-0.046 0.086-0.093 0.128-0.141 0.053-0.060 0.103-0.12 0.151-0.183 0.039-0.050 0.078-0.101 0.115-0.153 0.046-0.064 0.090-0.131 0.133-0.198 0.034-0.053 0.068-0.107 0.099-0.16 0.040-0.070 0.077-0.142 0.114-0.213 0.028-0.056 0.053-0.112 0.082-0.17 0.034-0.076 0.063-0.154 0.093-0.232 0.022-0.058 0.045-0.115 0.064-0.174 0.027-0.083 0.049-0.169 0.071-0.254 0.014-0.057 0.032-0.112 0.044-0.17 0.021-0.097 0.035-0.195 0.049-0.293 0.007-0.049 0.017-0.097 0.022-0.147 0.017-0.152 0.025-0.305 0.025-0.459 0.003-0.781-0.212-1.547-0.62-2.213 1.007-0.86 1.613-2.098 1.674-3.42l1.99-1.99c0.205-0.212 0.199-0.55-0.013-0.754-0.207-0.2-0.534-0.2-0.741 0l-1.366 1.366c-0.239-0.977-0.779-1.854-1.544-2.507 0.409-0.666 0.623-1.434 0.62-2.215-0.003-2.163-1.622-3.983-3.771-4.238 0.054-0.395 0.048-0.796-0.016-1.19-0.005-0.036-0.010-0.073-0.017-0.107-0.036-0.208-0.087-0.412-0.154-0.612 0-0.005 0-0.011-0.004-0.016 0.763-1.594 2.673-2.269 4.267-1.506 1.417 0.678 2.133 2.284 1.689 3.791-0.050 0.165-0.017 0.344 0.089 0.48 0.104 0.138 0.27 0.215 0.442 0.206l0.14-0.009c1.767 0.002 3.198 1.433 3.2 3.2 0.002 0.725-0.245 1.429-0.7 1.994-0.184 0.23-0.146 0.566 0.084 0.75 0.011 0.009 0.023 0.017 0.035 0.025 1.711 1.151 2.165 3.471 1.014 5.181-0.269 0.4-0.613 0.744-1.014 1.014-0.244 0.165-0.309 0.496-0.144 0.74z"></path>
</symbol>
<symbol id="coffee" viewBox="0 0 32 32">
<path fill="#fff" style="fill: var(--color1, #fff)" d="M29.486 0h-21.333c-0.295 0-0.533 0.239-0.533 0.533v5.333c0.002 1.472 1.195 2.665 2.667 2.667h2.133v1.6h-0.533c0.001-0.282-0.219-0.516-0.5-0.533l-8.533-0.533c-0.294-0.018-0.547 0.205-0.565 0.499-0.001 0.011-0.001 0.023-0.001 0.034v2.133c0 0.295 0.239 0.533 0.533 0.533h0.033l8.533-0.533c0.282-0.017 0.501-0.251 0.5-0.533h0.533v1.067c0 0.295 0.239 0.533 0.533 0.533h1.067v1.6c0 0.295 0.239 0.533 0.533 0.533h0.533v0.533c0 0.295 0.239 0.533 0.533 0.533s0.533-0.239 0.533-0.533v-0.533h0.533c0.295 0 0.533-0.239 0.533-0.533v-1.6h1.067c0.295 0 0.533-0.239 0.533-0.533v-3.733h2.667v14.933h-5.333c1.472-0.002 2.665-1.195 2.667-2.667v-3.2c0-0.295-0.239-0.533-0.533-0.533h-5.333c-0.295 0-0.533 0.239-0.533 0.533v0.533h-0.533c-0.294 0-0.533 0.239-0.533 0.533s0.239 0.533 0.533 0.533h0.533v1.6c0.002 1.472 1.195 2.665 2.667 2.667h-4.267c-1.472 0.002-2.665 1.195-2.667 2.667v5.333c0 0.295 0.239 0.533 0.533 0.533h20.8c0.295 0 0.533-0.239 0.533-0.533v-30.933c0-0.295-0.239-0.533-0.533-0.533zM10.819 10.699l-7.467 0.467v-0.998l7.467 0.467v0.065zM13.486 20.8v-2.667h4.267v2.667c0 0.884-0.716 1.6-1.6 1.6h-1.067c-0.884 0-1.6-0.716-1.6-1.6zM21.486 30.933h-12.267v-4.8c0-0.884 0.716-1.6 1.6-1.6h10.667v6.4zM16.152 13.867h-1.067v-1.067h1.067v1.067zM17.753 11.733h-4.267v-3.2h4.267v3.2zM28.953 30.933h-6.4v-22.933c0-0.295-0.239-0.533-0.533-0.533h-11.733c-0.884 0-1.6-0.716-1.6-1.6v-4.8h20.267v29.867z"></path>
<path fill="#fff" style="fill: var(--color1, #fff)" d="M25.219 6.933c1.473 0 2.667-1.194 2.667-2.667s-1.194-2.667-2.667-2.667c-1.473 0-2.667 1.194-2.667 2.667 0.002 1.472 1.195 2.665 2.667 2.667zM25.219 3.733h-1.502c0.225-0.637 0.826-1.064 1.502-1.067 0.884-0.004 1.603 0.71 1.607 1.593s-0.71 1.603-1.593 1.607c-0.68 0.003-1.288-0.425-1.515-1.067h1.502c0.294 0 0.533-0.239 0.533-0.533s-0.239-0.533-0.533-0.533z"></path>
<path fill="#fff" style="fill: var(--color1, #fff)" d="M24.152 11.733c-0.295 0-0.533 0.239-0.533 0.533v1.067c0 0.294 0.239 0.533 0.533 0.533s0.533-0.239 0.533-0.533v-1.067c0-0.295-0.239-0.533-0.533-0.533z"></path>
<path fill="#fff" style="fill: var(--color1, #fff)" d="M24.152 14.933c-0.295 0-0.533 0.239-0.533 0.533v1.067c0 0.294 0.239 0.533 0.533 0.533s0.533-0.239 0.533-0.533v-1.067c0-0.295-0.239-0.533-0.533-0.533z"></path>
<path fill="#fff" style="fill: var(--color1, #fff)" d="M24.152 18.133c-0.295 0-0.533 0.239-0.533 0.533v1.067c0 0.294 0.239 0.533 0.533 0.533s0.533-0.239 0.533-0.533v-1.067c0-0.295-0.239-0.533-0.533-0.533z"></path>
</symbol>
<symbol id="kitchen" viewBox="0 0 32 32">
<path fill="#fff" style="fill: var(--color1, #fff)" d="M31.467 6.933h-11.733c-0.295 0-0.533 0.239-0.533 0.533v12.8h-2.667v-0.533h0.533c0.295 0 0.533-0.239 0.533-0.533s-0.239-0.533-0.533-0.533h-5.333c-0.295 0-0.533 0.239-0.533 0.533s0.239 0.533 0.533 0.533h0.533v0.533h-5.333v-0.533h0.533c0.295 0 0.533-0.239 0.533-0.533s-0.239-0.533-0.533-0.533h-5.333c-0.295 0-0.533 0.239-0.533 0.533s0.239 0.533 0.533 0.533h0.533v0.533h-2.133c-0.295 0-0.533 0.239-0.533 0.533v10.667c0 0.295 0.239 0.533 0.533 0.533h30.933c0.295 0 0.533-0.239 0.533-0.533v-24c0-0.295-0.239-0.533-0.533-0.533zM13.333 19.733h2.133v0.533h-2.133v-0.533zM3.733 19.733h2.133v0.533h-2.133v-0.533zM8.533 30.933h-7.467v-6.4h7.467v6.4zM8.533 23.467h-7.467v-2.133h7.467v2.133zM19.2 30.933h-9.6v-9.6h9.6v9.6zM30.933 30.933h-10.667v-14.4h10.667v14.4zM30.933 15.467h-10.667v-7.467h10.667v7.467z"></path>
<path fill="#fff" style="fill: var(--color1, #fff)" d="M11.2 29.867h6.4c0.295 0 0.533-0.239 0.533-0.533v-6.4c0-0.295-0.239-0.533-0.533-0.533h-6.4c-0.295 0-0.533 0.239-0.533 0.533v6.4c0 0.295 0.239 0.533 0.533 0.533zM11.733 23.467h5.333v5.333h-5.333v-5.333z"></path>
<path fill="#fff" style="fill: var(--color1, #fff)" d="M21.333 14.933c0.295 0 0.533-0.239 0.533-0.533v-2.133c0-0.295-0.239-0.533-0.533-0.533s-0.533 0.239-0.533 0.533v2.133c0 0.295 0.239 0.533 0.533 0.533z"></path>
<path fill="#fff" style="fill: var(--color1, #fff)" d="M21.333 20.267c0.295 0 0.533-0.239 0.533-0.533v-2.133c0-0.295-0.239-0.533-0.533-0.533s-0.533 0.239-0.533 0.533v2.133c0 0.295 0.239 0.533 0.533 0.533z"></path>
<path fill="#fff" style="fill: var(--color1, #fff)" d="M1.257 9.476c0.096 0.080 0.217 0.124 0.343 0.124h16c0.295 0 0.534-0.238 0.534-0.533 0-0.125-0.044-0.247-0.124-0.343l-5.333-6.4c-0.102-0.122-0.252-0.192-0.41-0.191h-0.533v-1.6c0-0.295-0.239-0.533-0.533-0.533h-3.2c-0.295 0-0.533 0.239-0.533 0.533v1.6h-0.533c-0.158-0-0.309 0.070-0.41 0.191l-5.333 6.4c-0.189 0.226-0.159 0.562 0.067 0.751zM8.534 1.067h2.133v1.067h-2.133v-1.067zM7.184 3.2h4.833l4.445 5.333h-13.723l4.445-5.333z"></path>
</symbol>
<symbol id="wifi" viewBox="0 0 32 32">
<path fill="#fff" style="fill: var(--color1, #fff)" d="M22.199 18.734c-1.659-1.598-3.849-2.478-6.167-2.478s-4.509 0.88-6.168 2.478c-0.306 0.295-0.593 0.613-0.852 0.946-0.608 0.781-0.535 1.901 0.169 2.608 0.001 0.001 0.002 0.002 0.004 0.004 0.374 0.374 0.87 0.579 1.397 0.579 0.619 0 1.195-0.281 1.58-0.771 0.121-0.154 0.252-0.302 0.392-0.441 0.927-0.927 2.163-1.438 3.48-1.438s2.553 0.511 3.48 1.438c0.139 0.139 0.271 0.287 0.392 0.441 0.385 0.49 0.961 0.771 1.58 0.771h0c0.527 0 1.023-0.206 1.396-0.579 0.001-0.001 0.003-0.002 0.004-0.004 0.704-0.707 0.776-1.828 0.168-2.608-0.26-0.333-0.546-0.652-0.853-0.947zM22.215 21.629c-0.001 0.001-0.002 0.002-0.003 0.003-0.196 0.194-0.455 0.302-0.73 0.302-0.329 0-0.635-0.15-0.841-0.412-0.144-0.183-0.301-0.36-0.466-0.525-1.104-1.105-2.576-1.713-4.144-1.713s-3.040 0.608-4.144 1.713c-0.166 0.166-0.322 0.342-0.466 0.525-0.206 0.262-0.512 0.412-0.841 0.412-0.275 0-0.534-0.107-0.73-0.302-0.001-0.001-0.002-0.002-0.003-0.003-0.373-0.373-0.413-0.962-0.095-1.371 0.232-0.298 0.489-0.583 0.763-0.847 1.483-1.429 3.442-2.215 5.516-2.215s4.033 0.786 5.516 2.215c0.274 0.264 0.531 0.549 0.763 0.848 0.319 0.409 0.278 0.998-0.095 1.371z"></path>
<path fill="#fff" style="fill: var(--color1, #fff)" d="M16.031 22.312c-0.756 0-1.466 0.294-2.001 0.829s-0.829 1.245-0.829 2c0 0.756 0.294 1.466 0.829 2s1.245 0.829 2.001 0.829 1.466-0.294 2-0.829c1.103-1.103 1.103-2.898 0-4.001-0.534-0.534-1.245-0.829-2-0.829zM17.367 26.477c-0.357 0.357-0.831 0.554-1.336 0.554s-0.979-0.197-1.336-0.554c-0.357-0.357-0.554-0.831-0.554-1.336s0.197-0.979 0.554-1.336c0.357-0.357 0.832-0.554 1.336-0.554s0.979 0.197 1.336 0.554c0.737 0.737 0.737 1.936 0 2.672z"></path>
<path fill="#fff" style="fill: var(--color1, #fff)" d="M31.544 10.956c-0.21-0.23-0.429-0.459-0.651-0.681-3.056-3.055-6.902-5.073-11.122-5.836-4.124-0.745-8.328-0.252-12.157 1.425-0.238 0.104-0.346 0.381-0.242 0.619s0.381 0.346 0.619 0.242c7.612-3.336 16.341-1.681 22.238 4.215 0.212 0.212 0.422 0.431 0.623 0.651 0.376 0.411 0.359 1.043-0.038 1.44-0.205 0.204-0.477 0.315-0.766 0.307-0.285-0.006-0.548-0.125-0.74-0.335-0.18-0.197-0.368-0.393-0.557-0.582-3.39-3.39-7.907-5.256-12.719-5.256-0 0-0.001 0-0.001 0-4.813 0-9.331 1.868-12.72 5.258-0.189 0.19-0.376 0.385-0.555 0.58-0.192 0.21-0.454 0.329-0.74 0.335-0.291 0.007-0.561-0.103-0.766-0.307-0.397-0.397-0.414-1.030-0.038-1.44 0.2-0.219 0.409-0.437 0.621-0.649 1.374-1.374 2.924-2.536 4.609-3.456 0.228-0.124 0.312-0.41 0.187-0.637s-0.41-0.312-0.637-0.187c-1.763 0.962-3.386 2.179-4.823 3.616-0.221 0.222-0.44 0.45-0.65 0.679-0.716 0.782-0.687 1.985 0.067 2.739 0.377 0.377 0.874 0.583 1.405 0.583 0.015 0 0.030-0 0.046-0.001 0.544-0.012 1.046-0.239 1.412-0.64 0.17-0.186 0.347-0.371 0.526-0.55 3.212-3.213 7.493-4.982 12.056-4.983h0.001c4.562 0 8.843 1.769 12.055 4.981 0.18 0.18 0.357 0.365 0.528 0.552 0.366 0.4 0.868 0.628 1.412 0.64 0.542 0.012 1.069-0.2 1.451-0.582 0.753-0.753 0.783-1.956 0.066-2.739z"></path>
<path fill="#fff" style="fill: var(--color1, #fff)" d="M26.345 14.309c-2.545-2.426-5.886-3.877-9.409-4.087-0.259-0.015-0.481 0.182-0.497 0.441s0.182 0.481 0.441 0.497c3.302 0.197 6.433 1.556 8.817 3.829 0.302 0.288 0.594 0.591 0.867 0.902 0.365 0.415 0.345 1.044-0.044 1.434-0.206 0.206-0.479 0.314-0.771 0.305-0.294-0.009-0.563-0.136-0.757-0.358-0.214-0.244-0.442-0.482-0.676-0.708-2.226-2.151-5.168-3.336-8.284-3.336h-0c-3.115 0-6.057 1.185-8.283 3.336-0.235 0.227-0.462 0.465-0.677 0.709-0.195 0.222-0.464 0.349-0.757 0.358-0.291 0.010-0.565-0.099-0.771-0.305-0.389-0.389-0.411-1.016-0.050-1.427 0.183-0.208 0.374-0.414 0.569-0.611 2.425-2.453 5.664-3.918 9.122-4.126 0.259-0.016 0.456-0.238 0.441-0.497s-0.238-0.457-0.497-0.441c-3.689 0.222-7.145 1.786-9.733 4.404-0.208 0.21-0.412 0.43-0.607 0.651-0.687 0.782-0.647 1.973 0.091 2.711 0.376 0.376 0.871 0.581 1.4 0.581 0.022 0 0.044-0 0.066-0.001 0.548-0.018 1.070-0.264 1.432-0.677 0.197-0.225 0.407-0.445 0.624-0.654 4.208-4.066 11.054-4.066 15.262 0 0.216 0.209 0.426 0.428 0.623 0.653 0.363 0.412 0.885 0.659 1.433 0.677 0.554 0.018 1.074-0.188 1.465-0.58 0.739-0.739 0.776-1.933 0.085-2.718-0.292-0.331-0.602-0.655-0.924-0.962z"></path>
</symbol>
<symbol id="facebook" viewBox="0 0 32 32">
<path d="M21.329 5.313h2.921v-5.088c-0.504-0.069-2.237-0.225-4.256-0.225-4.212 0-7.097 2.649-7.097 7.519v4.481h-4.648v5.688h4.648v14.312h5.699v-14.311h4.46l0.708-5.688h-5.169v-3.919c0.001-1.644 0.444-2.769 2.735-2.769z"></path>
</symbol>
<symbol id="instagram" viewBox="0 0 32 32">
<path d="M31.969 9.408c-0.075-1.7-0.35-2.869-0.744-3.882-0.406-1.075-1.032-2.038-1.851-2.838-0.8-0.813-1.769-1.444-2.832-1.844-1.019-0.394-2.182-0.669-3.882-0.744-1.713-0.081-2.257-0.1-6.601-0.1s-4.888 0.019-6.595 0.094c-1.7 0.075-2.869 0.35-3.882 0.744-1.075 0.406-2.038 1.031-2.838 1.85-0.813 0.8-1.444 1.769-1.844 2.832-0.394 1.019-0.669 2.182-0.744 3.882-0.081 1.713-0.1 2.257-0.1 6.601s0.019 4.888 0.094 6.595c0.075 1.7 0.35 2.869 0.744 3.882 0.406 1.075 1.038 2.038 1.85 2.838 0.8 0.813 1.769 1.444 2.832 1.844 1.019 0.394 2.182 0.669 3.882 0.744 1.706 0.075 2.25 0.094 6.595 0.094s4.888-0.019 6.595-0.094c1.7-0.075 2.869-0.35 3.882-0.744 2.151-0.832 3.851-2.532 4.682-4.682 0.394-1.019 0.669-2.182 0.744-3.882 0.075-1.707 0.094-2.251 0.094-6.595s-0.006-4.888-0.081-6.595zM29.087 22.473c-0.069 1.563-0.331 2.407-0.55 2.969-0.538 1.394-1.644 2.5-3.038 3.038-0.563 0.219-1.413 0.481-2.969 0.55-1.688 0.075-2.194 0.094-6.464 0.094s-4.782-0.019-6.464-0.094c-1.563-0.069-2.407-0.331-2.969-0.55-0.694-0.256-1.325-0.663-1.838-1.194-0.531-0.519-0.938-1.144-1.194-1.838-0.219-0.563-0.481-1.413-0.55-2.969-0.075-1.688-0.094-2.194-0.094-6.464s0.019-4.782 0.094-6.464c0.069-1.563 0.331-2.407 0.55-2.969 0.256-0.694 0.663-1.325 1.2-1.838 0.519-0.531 1.144-0.938 1.838-1.194 0.563-0.219 1.413-0.481 2.969-0.55 1.688-0.075 2.194-0.094 6.464-0.094 4.276 0 4.782 0.019 6.464 0.094 1.563 0.069 2.407 0.331 2.969 0.55 0.694 0.256 1.325 0.662 1.838 1.194 0.531 0.519 0.938 1.144 1.194 1.838 0.219 0.563 0.481 1.413 0.55 2.969 0.075 1.688 0.094 2.194 0.094 6.464s-0.019 4.77-0.094 6.458z"></path>
<path d="M16.059 7.783c-4.538 0-8.22 3.682-8.22 8.22s3.682 8.22 8.22 8.22c4.538 0 8.22-3.682 8.22-8.22s-3.682-8.22-8.22-8.22zM16.059 21.335c-2.944 0-5.332-2.388-5.332-5.332s2.388-5.332 5.332-5.332c2.944 0 5.332 2.388 5.332 5.332s-2.388 5.332-5.332 5.332z"></path>
<path d="M26.524 7.458c0 1.060-0.859 1.919-1.919 1.919s-1.919-0.859-1.919-1.919c0-1.060 0.859-1.919 1.919-1.919s1.919 0.859 1.919 1.919z"></path>
</symbol>
<symbol id="twitter" viewBox="0 0 32 32">
<path d="M32 6.078c-1.19 0.522-2.458 0.868-3.78 1.036 1.36-0.812 2.398-2.088 2.886-3.626-1.268 0.756-2.668 1.29-4.16 1.588-1.204-1.282-2.92-2.076-4.792-2.076-3.632 0-6.556 2.948-6.556 6.562 0 0.52 0.044 1.020 0.152 1.496-5.454-0.266-10.28-2.88-13.522-6.862-0.566 0.982-0.898 2.106-0.898 3.316 0 2.272 1.17 4.286 2.914 5.452-1.054-0.020-2.088-0.326-2.964-0.808 0 0.020 0 0.046 0 0.072 0 3.188 2.274 5.836 5.256 6.446-0.534 0.146-1.116 0.216-1.72 0.216-0.42 0-0.844-0.024-1.242-0.112 0.85 2.598 3.262 4.508 6.13 4.57-2.232 1.746-5.066 2.798-8.134 2.798-0.538 0-1.054-0.024-1.57-0.090 2.906 1.874 6.35 2.944 10.064 2.944 12.072 0 18.672-10 18.672-18.668 0-0.29-0.010-0.57-0.024-0.848 1.302-0.924 2.396-2.078 3.288-3.406z"></path>
</symbol>
</defs>
</svg>
